<svg version="1.1" id="Layer_1" xmlns="http://www.w3.org/2000/svg" xmlns:xlink="http://www.w3.org/1999/xlink" x="0px" y="0px"
	 width="100%" viewBox="0 0 225 225" enable-background="new 0 0 225 225" xml:space="preserve">
<path fill="#010B1D" opacity="1.000000" stroke="none" 
	d="
M157.000000,226.000000 
	C104.666672,226.000000 52.833340,226.000000 1.000007,226.000000 
	C1.000005,151.000000 1.000005,76.000015 1.000002,1.000017 
	C75.999992,1.000011 150.999985,1.000011 225.999969,1.000006 
	C225.999985,75.999985 225.999985,150.999969 226.000000,225.999969 
	C203.166672,226.000000 180.333328,226.000000 157.000000,226.000000 
M134.829788,138.157990 
	C134.829788,138.157990 134.692719,138.142563 134.758011,138.788895 
	C135.143127,139.538254 135.528229,140.287613 135.952225,141.753479 
	C136.942108,143.846619 137.932007,145.939774 138.959351,148.752716 
	C139.943420,150.847656 140.927505,152.942596 141.940186,155.691345 
	C142.479691,156.859909 143.019196,158.028473 143.765198,159.900497 
	C144.793732,162.078644 145.822266,164.256805 147.028824,166.880936 
	C147.247498,167.131073 147.519470,167.289948 147.761337,168.035217 
	C148.914780,169.519226 150.068237,171.003235 151.301468,172.600281 
	C151.301468,172.600281 151.437668,172.575928 151.658997,173.101227 
	C152.109116,173.364700 152.559219,173.628159 153.648590,174.192719 
	C155.064285,174.902252 156.479996,175.611771 158.482422,176.755035 
	C163.803802,178.507370 167.921219,175.322861 172.609558,173.820587 
	C177.025436,172.405594 179.166351,170.166931 180.220245,165.478165 
	C180.194763,165.092911 180.169281,164.707642 180.766266,163.798492 
	C180.785904,162.194977 180.805542,160.591446 181.194687,158.287186 
	C181.201477,156.056870 181.208267,153.826569 181.167618,150.987625 
	C180.800201,150.285095 180.432770,149.582581 180.043976,148.244751 
	C179.503906,147.122208 178.963837,145.999649 178.253479,144.184982 
	C177.782516,143.106613 177.311554,142.028259 176.766541,140.248764 
	C175.587616,137.670715 174.408691,135.092682 172.747818,132.016678 
	C172.217148,130.566010 171.686478,129.115326 170.814301,127.140068 
	C170.233734,126.369728 169.653168,125.599388 169.106186,124.057953 
	C168.318344,121.702263 167.530502,119.346565 166.688065,116.290337 
	C164.124664,110.651245 161.561264,105.012154 158.490829,98.831612 
	C158.043106,97.468544 157.595398,96.105476 157.174484,94.323112 
	C157.174484,94.323112 156.924454,93.985451 156.890747,93.276817 
	C155.904556,91.193153 154.918365,89.109489 153.876846,86.319527 
	C152.900452,84.229347 151.924042,82.139160 150.978104,79.420868 
	C150.674225,78.892479 150.370346,78.364090 150.038162,77.179489 
	C149.374161,76.094536 148.710159,75.009583 148.029984,73.279869 
	C147.933167,72.867043 147.836349,72.454216 147.651871,71.403122 
	C147.050034,70.262398 146.448196,69.121674 145.791641,67.270950 
	C144.738632,64.885712 143.685623,62.500469 142.568954,59.465702 
	C141.767914,58.186268 140.966858,56.906834 140.054916,55.112103 
	C139.711014,54.727760 139.367111,54.343422 138.848679,53.306995 
	C135.931854,50.774612 133.015030,48.242229 129.640457,45.202423 
	C120.125420,40.310459 110.588425,39.073753 100.304008,44.975590 
	C98.502319,46.297543 96.700623,47.619495 94.293564,49.087818 
	C93.513481,50.022514 92.733391,50.957211 91.373711,52.183178 
	C90.572632,53.409470 89.771553,54.635761 88.544716,56.316380 
	C88.095116,57.225914 87.645508,58.135445 86.768654,59.614254 
	C85.811615,62.054932 84.854568,64.495605 83.394165,67.396881 
	C82.822937,68.888412 82.251709,70.379951 81.195953,72.240891 
	C81.061935,73.040749 80.927917,73.840599 80.275414,75.120773 
	C79.236145,77.743164 78.196877,80.365547 76.759521,83.516823 
	C76.473442,84.333717 76.187355,85.150604 75.428673,86.366730 
	C75.242081,87.160210 75.055481,87.953682 74.322662,89.186806 
	C73.284561,91.794922 72.246468,94.403046 70.818016,97.539482 
	C70.477730,98.572189 70.137436,99.604897 69.264748,101.121284 
	C68.008202,104.257164 66.751656,107.393051 65.496185,110.555977 
	C65.496185,110.555977 65.487450,110.580536 65.150711,110.975052 
	C65.126656,111.312637 65.102592,111.650223 64.685326,112.535622 
	C64.097191,113.971275 63.509052,115.406929 62.421909,117.351746 
	C61.535267,120.540512 60.648621,123.729286 59.051929,126.884811 
	C57.990566,129.173645 56.929203,131.462479 55.378433,134.121185 
	C55.055855,135.090515 54.733276,136.059845 54.030239,137.568390 
	C53.944958,137.997421 53.859673,138.426453 53.302750,139.210754 
	C53.172009,139.781967 53.041271,140.353180 52.381828,141.376984 
	C50.977936,144.911728 49.574043,148.446472 47.754688,152.702988 
	C47.841808,156.471542 47.928925,160.240082 48.019875,164.733597 
	C51.014744,168.147995 54.009613,171.562408 57.416218,175.559769 
	C59.262184,176.080276 61.108147,176.600784 63.688419,177.505478 
	C69.552185,177.507446 75.415947,177.509430 81.869431,177.495544 
	C82.459175,177.505768 83.048920,177.515991 84.586174,177.825378 
	C93.367287,177.598816 102.148392,177.372269 111.639725,177.056625 
	C112.102982,176.954895 112.566238,176.853165 113.529297,176.782394 
	C113.770187,176.573563 114.011070,176.364746 114.287064,176.167709 
	C114.287064,176.167709 114.323021,176.178360 115.023193,176.108749 
	C127.608673,170.559402 131.281525,157.721558 123.097580,146.242310 
	C122.303459,145.505173 121.509331,144.768036 120.376366,143.469498 
	C117.901863,142.316071 115.427361,141.162643 112.335632,139.523895 
	C109.896858,139.466736 107.458076,139.409592 104.270256,139.187958 
	C102.850166,139.417374 101.430077,139.646790 99.370018,139.734238 
	C98.647041,139.367813 97.924057,139.001404 97.164566,138.075409 
	C97.061432,137.716354 96.958298,137.357315 96.986992,136.257584 
	C96.945648,135.508194 96.904312,134.758820 97.139549,133.425690 
	C97.415619,132.623672 97.691689,131.821640 98.382088,130.620682 
	C98.533653,130.081711 98.685226,129.542740 99.128296,128.661530 
	C99.128296,128.661530 99.088982,128.213684 99.593071,127.739731 
	C100.049812,126.445702 100.506561,125.151672 101.396065,123.330589 
	C102.746086,119.910576 104.096107,116.490562 105.967476,112.487953 
	C106.674446,110.016960 107.381424,107.545967 108.573265,104.966324 
	C108.938103,104.862854 109.141052,104.622597 109.671875,103.793091 
	C110.128639,102.545456 110.585403,101.297829 111.486511,99.804802 
	C111.674606,99.528870 111.862701,99.252945 112.838387,98.830620 
	C114.895378,99.735870 116.952362,100.641113 119.055916,102.267548 
	C119.941460,103.905853 120.827003,105.544159 121.889107,107.740021 
	C122.287445,108.170410 122.685783,108.600807 122.959717,109.784821 
	C123.349304,111.192894 123.738899,112.600975 124.095634,114.612030 
	C124.633980,115.443634 125.172318,116.275230 125.810806,117.805298 
	C126.298035,118.865959 126.785271,119.926620 127.373604,121.680527 
	C128.778137,124.832588 130.182678,127.984657 131.743576,131.838959 
	C132.543488,133.557190 133.343399,135.275436 134.147888,137.520905 
	C134.364517,137.777985 134.581146,138.035080 134.829788,138.157990 
z"/>
<path fill="#F40404" opacity="1.000000" stroke="none" 
	d="
M101.008217,45.030415 
	C110.588425,39.073753 120.125420,40.310459 129.773026,45.800095 
	C123.982414,51.874641 118.316345,57.911369 108.820892,55.715122 
	C104.882782,52.856239 101.528496,49.983326 101.008217,45.030415 
z"/>
<path fill="#F6D71C" opacity="1.000000" stroke="none" 
	d="
M166.742676,116.990860 
	C167.530502,119.346565 168.318344,121.702263 169.064178,124.851662 
	C168.420914,126.698044 168.070816,128.293488 167.174408,128.708298 
	C163.529694,130.394836 159.667053,131.604309 155.984833,133.218033 
	C153.567093,134.277603 151.320694,135.728195 148.562515,137.002808 
	C145.160049,137.570175 142.210236,138.285751 139.217651,138.643631 
	C137.750305,138.819122 136.203537,138.330582 134.692719,138.142563 
	C134.692719,138.142563 134.829788,138.157990 134.769791,137.979034 
	C134.596817,137.477982 134.407990,137.209183 134.143311,136.993668 
	C133.343399,135.275436 132.543488,133.557190 131.988434,131.339203 
	C133.487976,130.232269 134.742645,129.625076 135.947327,129.328979 
	C135.648819,130.692902 135.400314,131.745728 135.133972,132.874008 
	C146.383698,133.980392 153.432281,125.631371 162.989655,122.667374 
	C162.124603,120.648735 161.554245,119.317780 161.144958,117.843407 
	C163.118240,117.463608 164.930466,117.227234 166.742676,116.990860 
z"/>
<path fill="#FAC40E" opacity="1.000000" stroke="none" 
	d="
M135.997345,129.017883 
	C134.742645,129.625076 133.487976,130.232269 131.910248,130.988098 
	C130.182678,127.984657 128.778137,124.832588 127.663010,121.372765 
	C129.466675,122.350578 130.980942,123.636154 131.389542,123.983047 
	C134.722382,122.301018 137.075256,120.979103 139.534515,119.899460 
	C145.246506,117.391808 150.902740,114.692818 156.782700,112.650429 
	C162.562393,110.642876 163.156738,109.164909 159.057739,103.594482 
	C159.023911,101.932159 159.010880,100.652611 158.997864,99.373070 
	C161.561264,105.012154 164.124664,110.651245 166.715363,116.640594 
	C164.930466,117.227234 163.118240,117.463608 160.778992,117.912384 
	C153.195496,120.794098 146.110718,123.392731 139.109512,126.199806 
	C137.891327,126.688225 137.025772,128.056168 135.997345,129.017883 
z"/>
<path fill="#1695F7" opacity="1.000000" stroke="none" 
	d="
M123.400116,146.828613 
	C131.281525,157.721558 127.608673,170.559402 114.520607,175.885101 
	C109.582932,163.589706 118.691658,155.925079 123.400116,146.828613 
z"/>
<path fill="#2393FD" opacity="1.000000" stroke="none" 
	d="
M123.248848,146.535461 
	C118.691658,155.925079 109.582932,163.589706 114.170517,175.919891 
	C114.323021,176.178360 114.287064,176.167709 114.041695,176.208694 
	C113.499710,176.354279 113.244102,176.521530 113.029495,176.751434 
	C112.566238,176.853165 112.102982,176.954895 110.871155,177.026199 
	C108.395378,176.949081 106.688187,176.902390 104.985115,176.417511 
	C104.562195,166.222717 107.898331,157.753250 113.331711,149.783646 
	C115.298035,146.899460 117.097832,144.483551 120.715202,144.030899 
	C121.509331,144.768036 122.303459,145.505173 123.248848,146.535461 
z"/>
<path fill="#318EFB" opacity="1.000000" stroke="none" 
	d="
M120.545784,143.750198 
	C117.097832,144.483551 115.298035,146.899460 113.331711,149.783646 
	C107.898331,157.753250 104.562195,166.222717 104.548409,176.491180 
	C101.741554,176.961563 99.375526,176.920074 97.009392,176.482300 
	C97.121613,174.934418 96.944374,173.653320 97.392273,172.651810 
	C100.861801,164.893784 104.375275,157.152939 108.048119,149.489700 
	C109.274002,146.931946 110.514343,144.689346 107.165947,142.766510 
	C107.713791,138.363708 110.960297,140.599167 112.952858,140.009216 
	C115.427361,141.162643 117.901863,142.316071 120.545784,143.750198 
z"/>
<path fill="#9670FA" opacity="1.000000" stroke="none" 
	d="
M62.954109,177.121307 
	C61.108147,176.600784 59.262184,176.080276 57.235321,174.901566 
	C59.614403,168.016388 62.237358,161.915756 68.309402,158.017059 
	C69.940887,156.969528 70.794136,154.709915 72.297401,152.836304 
	C75.396133,150.112350 78.202110,147.558792 81.256073,145.004150 
	C81.504051,145.003082 82.000008,144.998169 82.356606,144.977051 
	C85.812904,142.308136 88.912605,139.660339 92.257538,137.008362 
	C92.502754,137.004196 92.993156,136.993378 93.379478,136.996185 
	C94.795593,136.998749 95.825378,136.998505 96.855171,136.998260 
	C96.958298,137.357315 97.061432,137.716354 96.973457,138.629532 
	C95.186867,140.454529 93.591385,141.725388 91.640129,143.018860 
	C87.855362,146.360046 84.426369,149.678635 80.998688,152.998611 
	C81.000000,153.000000 80.996948,152.997559 80.635468,153.013855 
	C72.257080,155.645508 70.192810,163.889069 65.213966,169.356827 
	C63.944866,170.750549 65.008881,174.268784 64.657318,176.853134 
	C63.860512,176.970703 63.407310,177.046005 62.954109,177.121307 
z"/>
<path fill="#C2DF33" opacity="1.000000" stroke="none" 
	d="
M141.911575,155.037537 
	C140.927505,152.942596 139.943420,150.847656 139.296448,148.297592 
	C148.935654,144.557098 158.774780,142.626495 167.169266,137.051559 
	C169.268082,135.657684 171.213715,134.033142 173.229752,132.514633 
	C174.408691,135.092682 175.587616,137.670715 176.439331,140.612747 
	C174.021667,141.344467 171.266418,140.997406 169.962112,142.210434 
	C165.585770,146.280487 159.729126,146.637314 154.645737,148.490677 
	C149.995407,150.186096 145.291321,151.095383 141.911575,155.037537 
z"/>
<path fill="#FCB707" opacity="1.000000" stroke="none" 
	d="
M159.078522,103.977264 
	C163.156738,109.164909 162.562393,110.642876 156.782700,112.650429 
	C150.902740,114.692818 145.246506,117.391808 139.534515,119.899460 
	C137.075256,120.979103 134.722382,122.301018 131.389542,123.983047 
	C130.980942,123.636154 129.466675,122.350578 127.612457,121.026138 
	C126.785271,119.926620 126.298035,118.865959 126.112747,117.395874 
	C130.338394,115.958275 134.445633,115.366180 138.146591,113.808670 
	C145.245743,110.821060 152.114304,107.285500 159.078522,103.977264 
z"/>
<path fill="#B468F7" opacity="1.000000" stroke="none" 
	d="
M92.993149,136.993378 
	C92.993156,136.993378 92.502754,137.004196 91.856277,137.003494 
	C90.140816,137.007034 89.071838,137.011276 87.703629,137.087051 
	C86.937080,137.772354 86.469757,138.386093 85.739151,139.146408 
	C84.651062,139.863815 83.826248,140.434647 82.628387,141.021393 
	C76.958481,143.657700 71.279289,145.723007 66.462685,149.040649 
	C60.597599,153.080460 54.285114,151.249283 48.170151,151.981216 
	C49.574043,148.446472 50.977936,144.911728 52.692318,141.182861 
	C53.002808,140.988724 53.099400,141.046371 53.089596,141.417664 
	C53.155243,144.658295 54.401566,147.025681 57.464325,146.212051 
	C63.728672,144.547958 69.868851,142.379898 75.965446,140.159363 
	C76.905090,139.817123 77.341690,138.093704 78.424232,137.008301 
	C85.214264,135.011566 91.591011,133.015594 97.967758,131.019623 
	C97.691689,131.821640 97.415619,132.623672 96.654358,133.732178 
	C95.110504,135.023560 94.051826,136.008469 92.993149,136.993378 
z"/>
<path fill="#F952F2" opacity="1.000000" stroke="none" 
	d="
M65.495102,110.528931 
	C66.751656,107.393051 68.008202,104.257164 69.716568,101.215614 
	C71.289780,102.465744 72.207184,104.173889 73.569595,104.677055 
	C78.247009,106.404510 83.146790,107.529602 87.825119,109.254936 
	C90.045807,110.073914 91.957298,111.731300 94.102341,113.326347 
	C95.126335,114.091728 96.056870,114.539612 97.242371,114.990921 
	C97.667320,114.996201 97.837303,114.998047 98.006210,115.374969 
	C98.001991,116.500183 97.998848,117.250328 97.604980,117.979828 
	C92.810410,116.973907 88.406548,115.988632 83.607666,114.981880 
	C77.306801,113.483246 71.400948,112.006088 65.495102,110.528931 
z"/>
<path fill="#F60D03" opacity="1.000000" stroke="none" 
	d="
M108.999542,55.998463 
	C118.316345,57.911369 123.982414,51.874641 130.001892,46.053806 
	C133.015030,48.242229 135.931854,50.774612 138.532135,53.644760 
	C136.395142,54.554634 134.551987,55.063698 132.758270,55.709946 
	C125.639633,58.274666 119.143204,62.975502 110.686569,61.956581 
	C109.581291,61.603439 108.790955,61.297989 108.002594,60.622299 
	C108.336243,58.834190 108.667892,57.416325 108.999542,55.998463 
z"/>
<path fill="#AA6CF8" opacity="1.000000" stroke="none" 
	d="
M47.962418,152.342102 
	C54.285114,151.249283 60.597599,153.080460 66.462685,149.040649 
	C71.279289,145.723007 76.958481,143.657700 82.573303,141.360718 
	C82.594177,142.788818 82.297096,143.893494 82.000008,144.998169 
	C82.000008,144.998169 81.504051,145.003082 80.891327,145.018707 
	C76.851547,147.688324 73.424477,150.342331 69.665146,152.997528 
	C68.889870,152.999863 68.446861,153.000992 67.635735,153.018524 
	C61.750511,155.921356 56.211807,158.768387 50.752018,161.759476 
	C50.244640,162.037430 50.237801,163.229034 49.668106,163.996948 
	C48.897118,164.001190 48.456581,164.004913 48.016045,164.008636 
	C47.928925,160.240082 47.841808,156.471542 47.962418,152.342102 
z"/>
<path fill="#E859FB" opacity="1.000000" stroke="none" 
	d="
M59.761978,126.918053 
	C60.648621,123.729286 61.535267,120.540512 62.784878,117.452232 
	C65.329109,118.701515 67.455383,120.694473 69.701942,120.840805 
	C76.442970,121.279907 83.230965,120.998070 90.410858,120.998505 
	C93.489075,120.055016 96.820366,123.237442 99.067398,119.674011 
	C99.712189,120.116264 100.356979,120.558525 100.998840,121.358154 
	C100.985046,122.429573 100.974182,123.143608 100.963303,123.857643 
	C100.506561,125.151672 100.049812,126.445702 99.284027,127.624741 
	C98.163162,126.610855 97.350693,124.934196 96.539597,124.934868 
	C89.409454,124.940765 82.280373,125.280083 75.149254,125.446999 
	C71.572777,125.530708 67.992714,125.461586 65.324196,125.461586 
	C63.868866,126.572968 62.935562,127.285690 61.771481,127.779060 
	C60.947792,127.345825 60.354885,127.131935 59.761978,126.918053 
z"/>
<path fill="#FCAA04" opacity="1.000000" stroke="none" 
	d="
M159.057739,103.594482 
	C152.114304,107.285500 145.245743,110.821060 138.146591,113.808670 
	C134.445633,115.366180 130.338394,115.958275 126.062668,117.046638 
	C125.172318,116.275230 124.633980,115.443634 124.452324,114.227295 
	C135.465775,109.255165 146.122528,104.667770 157.147690,99.921791 
	C157.147690,98.993835 157.147690,96.868118 157.147690,94.742409 
	C157.595398,96.105476 158.043106,97.468544 158.744354,99.102341 
	C159.010880,100.652611 159.023911,101.932159 159.057739,103.594482 
z"/>
<path fill="#FB488C" opacity="1.000000" stroke="none" 
	d="
M111.042168,100.050194 
	C110.585403,101.297829 110.128639,102.545456 109.199669,103.749420 
	C99.576279,97.052467 90.457939,90.352829 81.227982,83.810699 
	C80.195503,83.078888 78.529701,83.240593 77.157600,82.987938 
	C78.196877,80.365547 79.236145,77.743164 80.592308,75.262161 
	C84.238708,82.020859 91.670563,82.395653 97.248459,85.986404 
	C97.668816,86.002464 97.836975,86.007484 98.067383,86.353119 
	C100.620064,90.276939 102.890800,94.047066 105.704895,97.354935 
	C106.895279,98.754189 109.228424,99.181252 111.042168,100.050194 
z"/>
<path fill="#A6E23C" opacity="1.000000" stroke="none" 
	d="
M141.925873,155.364441 
	C145.291321,151.095383 149.995407,150.186096 154.645737,148.490677 
	C159.729126,146.637314 165.585770,146.280487 169.962112,142.210434 
	C171.266418,140.997406 174.021667,141.344467 176.476349,140.963318 
	C177.311554,142.028259 177.782516,143.106613 177.911438,144.559219 
	C174.610977,146.139572 171.640427,147.316910 168.696442,148.557281 
	C160.311401,152.090118 151.937164,155.648636 143.558685,159.197052 
	C143.019196,158.028473 142.479691,156.859909 141.925873,155.364441 
z"/>
<path fill="#DBDF2B" opacity="1.000000" stroke="none" 
	d="
M172.988785,132.265656 
	C171.213715,134.033142 169.268082,135.657684 167.169266,137.051559 
	C158.774780,142.626495 148.935654,144.557098 139.277710,147.937683 
	C137.932007,145.939774 136.942108,143.846619 136.298492,141.534546 
	C140.762955,140.877838 144.881149,140.440048 149.379547,139.984741 
	C152.036484,139.024292 154.472900,138.345657 156.557999,137.085648 
	C161.512421,134.091736 166.300522,130.822586 171.155823,127.664658 
	C171.686478,129.115326 172.217148,130.566010 172.988785,132.265656 
z"/>
<path fill="#F455FD" opacity="1.000000" stroke="none" 
	d="
M90.000626,120.997559 
	C83.230965,120.998070 76.442970,121.279907 69.701942,120.840805 
	C67.455383,120.694473 65.329109,118.701515 63.034382,117.197647 
	C63.509052,115.406929 64.097191,113.971275 65.031876,112.056396 
	C65.414764,111.244965 65.451111,110.912750 65.487450,110.580536 
	C65.487450,110.580536 65.496185,110.555977 65.495644,110.542450 
	C71.400948,112.006088 77.306801,113.483246 83.674896,115.328690 
	C86.091637,117.463837 88.046135,119.230698 90.000626,120.997559 
z"/>
<path fill="#DC5CFB" opacity="1.000000" stroke="none" 
	d="
M62.002266,127.998413 
	C62.935562,127.285690 63.868866,126.572968 65.324196,125.461586 
	C67.992714,125.461586 71.572777,125.530708 75.149254,125.446999 
	C82.280373,125.280083 89.409454,124.940765 96.539597,124.934868 
	C97.350693,124.934196 98.163162,126.610855 99.031982,127.861725 
	C99.088982,128.213684 99.128296,128.661530 98.532722,128.826950 
	C94.292496,128.996490 90.647850,129.000610 86.552322,129.002808 
	C82.148178,129.769928 78.064034,130.144119 74.272385,131.400833 
	C68.619606,133.274414 63.199955,132.050018 62.002266,127.998413 
z"/>
<path fill="#45DD55" opacity="1.000000" stroke="none" 
	d="
M180.051758,166.035614 
	C179.166351,170.166931 177.025436,172.405594 172.609558,173.820587 
	C167.921219,175.322861 163.803802,178.507370 158.166031,176.236298 
	C157.662827,174.950790 157.052094,173.871033 157.352585,173.464066 
	C162.121719,167.004730 172.588852,163.638718 180.051758,166.035614 
z"/>
<path fill="#D05FFA" opacity="1.000000" stroke="none" 
	d="
M61.771484,127.779068 
	C63.199955,132.050018 68.619606,133.274414 74.272385,131.400833 
	C78.064034,130.144119 82.148178,129.769928 86.476387,129.357666 
	C84.836128,130.813797 82.835083,131.940094 80.802185,133.005630 
	C78.214218,134.362106 75.600494,135.669449 72.531296,136.998108 
	C66.096268,137.686310 60.127808,138.374329 54.068104,139.001343 
	C53.976860,138.940323 53.774387,138.855484 53.774387,138.855484 
	C53.859673,138.426453 53.944958,137.997421 54.513634,137.155106 
	C55.287296,135.744980 55.577568,134.748154 55.867844,133.751312 
	C56.929203,131.462479 57.990566,129.173645 59.406952,126.901428 
	C60.354885,127.131935 60.947792,127.345825 61.771484,127.779068 
z"/>
<path fill="#FD9C04" opacity="1.000000" stroke="none" 
	d="
M157.161087,94.532761 
	C157.147690,96.868118 157.147690,98.993835 157.147690,99.921791 
	C146.122528,104.667770 135.465775,109.255165 124.468750,113.925804 
	C123.738899,112.600975 123.349304,111.192894 123.250137,109.396408 
	C123.540558,109.008003 123.997414,108.993042 124.247955,108.995842 
	C124.665520,108.999428 124.832558,109.000206 124.999794,109.000496 
	C125.000000,109.000000 124.999252,109.000786 125.106117,109.114456 
	C125.212982,109.228134 125.646080,109.282906 125.646080,109.282906 
	C125.646080,109.282906 126.003662,109.000610 126.209732,108.799644 
	C126.608192,108.064651 126.800591,107.530624 127.244408,106.995728 
	C127.663383,106.993713 127.830940,106.992584 128.374786,106.976105 
	C134.798019,104.484688 140.870514,102.067551 146.864365,99.469017 
	C147.763260,99.079315 148.293900,97.840164 149.243027,96.990913 
	C149.491165,96.987869 149.987488,96.985947 150.348404,96.988739 
	C151.808411,96.653328 152.907516,96.315117 154.264938,95.834946 
	C155.323669,95.123802 156.124054,94.554626 156.924454,93.985451 
	C156.924454,93.985451 157.174484,94.323112 157.161087,94.532761 
z"/>
<path fill="#8EE143" opacity="1.000000" stroke="none" 
	d="
M143.661942,159.548767 
	C151.937164,155.648636 160.311401,152.090118 168.696442,148.557281 
	C171.640427,147.316910 174.610977,146.139572 177.996582,144.905273 
	C178.963837,145.999649 179.503906,147.122208 179.860352,148.748413 
	C178.433975,149.190277 177.003220,148.693604 175.978638,149.136520 
	C168.788101,152.244904 161.674240,155.531647 154.551514,158.795532 
	C151.996246,159.966446 149.484207,161.231750 146.797958,162.528564 
	C146.996429,162.767487 147.499924,163.373657 147.998596,163.990448 
	C147.993774,164.001068 147.981277,164.017639 147.753265,164.270050 
	C147.300430,165.159943 147.075623,165.797455 146.850800,166.434952 
	C145.822266,164.256805 144.793732,162.078644 143.661942,159.548767 
z"/>
<path fill="#8277FC" opacity="1.000000" stroke="none" 
	d="
M91.995895,142.996246 
	C93.591385,141.725388 95.186867,140.454529 96.991714,138.909317 
	C97.924057,139.001404 98.647041,139.367813 99.579575,140.078629 
	C99.527435,140.949463 99.265732,141.475922 98.665131,142.061584 
	C94.652878,145.447342 90.973221,148.766937 87.307487,152.101852 
	C79.999214,158.750549 75.818748,166.959366 74.577438,176.896744 
	C72.437073,176.915894 70.722313,176.877899 69.009186,176.461472 
	C69.117126,175.265411 68.979935,174.302155 69.368073,173.653061 
	C72.628769,168.200150 76.033173,162.833008 79.279709,157.371918 
	C80.069656,156.043121 80.435890,154.462433 80.996948,152.997559 
	C80.996948,152.997559 81.000000,153.000000 81.338806,152.936676 
	C85.117035,149.580978 88.556465,146.288620 91.995895,142.996246 
z"/>
<path fill="#4F84FA" opacity="1.000000" stroke="none" 
	d="
M112.644241,139.766556 
	C110.960297,140.599167 107.713791,138.363708 106.825836,142.874908 
	C103.471207,148.709290 100.252693,154.038925 97.813148,159.704010 
	C95.464066,165.159027 91.341301,170.254822 92.604515,176.939194 
	C91.136223,176.961655 90.065956,176.923386 88.996338,176.444717 
	C88.826897,171.837158 89.255180,168.049438 91.662811,164.208054 
	C94.145531,160.246857 95.276436,155.438385 96.999390,151.000305 
	C97.000000,151.000000 97.000610,150.998779 97.341385,150.931717 
	C98.969757,149.438431 100.500572,148.161041 101.486496,146.550171 
	C102.875687,144.280426 103.861198,141.763611 105.019302,139.352448 
	C107.458076,139.409592 109.896858,139.466736 112.644241,139.766556 
z"/>
<path fill="#FD4FE2" opacity="1.000000" stroke="none" 
	d="
M94.008873,113.008850 
	C91.957298,111.731300 90.045807,110.073914 87.825119,109.254936 
	C83.146790,107.529602 78.247009,106.404510 73.569595,104.677055 
	C72.207184,104.173889 71.289780,102.465744 69.982773,100.973770 
	C70.137436,99.604897 70.477730,98.572189 71.360130,97.274536 
	C72.596146,96.997078 73.290039,96.984566 74.330513,97.046539 
	C81.330040,101.105583 88.005608,105.053146 94.621574,109.098206 
	C96.502251,110.248062 98.209419,111.681686 99.696648,113.061050 
	C98.933853,113.757904 98.470573,114.378906 98.007286,114.999901 
	C97.837303,114.998047 97.667320,114.996201 97.149254,114.673828 
	C95.870407,113.905159 94.939636,113.457008 94.008873,113.008850 
z"/>
<path fill="#FB8203" opacity="1.000000" stroke="none" 
	d="
M156.907593,93.631134 
	C156.124054,94.554626 155.323669,95.123802 154.184296,95.546387 
	C152.559372,95.928505 151.273438,96.457230 149.987488,96.985947 
	C149.987488,96.985947 149.491165,96.987869 148.836472,96.990753 
	C144.121460,97.992920 140.061142,98.992210 135.989517,99.662430 
	C135.649948,98.551384 135.321686,97.769402 135.086761,96.657524 
	C141.430786,93.227028 147.681473,90.126427 153.932175,87.025826 
	C154.918365,89.109489 155.904556,91.193153 156.907593,93.631134 
z"/>
<path fill="#FC4BA6" opacity="1.000000" stroke="none" 
	d="
M76.958557,83.252380 
	C78.529701,83.240593 80.195503,83.078888 81.227982,83.810699 
	C90.457939,90.352829 99.576279,97.052467 108.954788,103.975647 
	C109.141052,104.622597 108.938103,104.862854 107.982559,105.002441 
	C106.926170,105.022995 106.460487,105.007431 105.796997,104.699860 
	C104.069763,103.936295 102.540344,103.464737 101.006134,102.995949 
	C101.001343,102.998711 101.007423,102.986618 100.917236,102.660126 
	C94.315735,94.140999 84.589523,90.844666 75.901276,85.967499 
	C76.187355,85.150604 76.473442,84.333717 76.958557,83.252380 
z"/>
<path fill="#9E6EF8" opacity="1.000000" stroke="none" 
	d="
M68.003845,153.002136 
	C68.446861,153.000992 68.889870,152.999863 69.999687,152.999115 
	C71.112541,153.001907 71.558586,153.004318 72.004639,153.006714 
	C70.794136,154.709915 69.940887,156.969528 68.309402,158.017059 
	C62.237358,161.915756 59.614403,168.016388 57.029453,174.610077 
	C54.009613,171.562408 51.014744,168.147995 48.017960,164.371124 
	C48.456581,164.004913 48.897118,164.001190 49.905273,164.189301 
	C50.864712,164.674988 51.365318,165.301437 51.632462,165.214066 
	C58.450329,162.984253 64.303574,159.425537 68.003845,153.002136 
z"/>
<path fill="#F82204" opacity="1.000000" stroke="none" 
	d="
M140.165817,55.627396 
	C140.966858,56.906834 141.767914,58.186268 142.439499,60.094139 
	C141.345276,62.102360 140.666611,64.236847 139.365723,64.730003 
	C134.014694,66.758553 128.474564,68.288239 122.643448,69.939133 
	C120.854881,69.582458 119.426849,69.288025 117.999107,68.619492 
	C118.000214,67.497223 118.001022,66.749054 118.394539,65.980545 
	C122.561211,64.878807 127.010452,64.689667 129.930328,62.479778 
	C133.237183,59.977020 139.082916,61.209793 140.165817,55.627396 
z"/>
<path fill="#F81703" opacity="1.000000" stroke="none" 
	d="
M140.110367,55.369751 
	C139.082916,61.209793 133.237183,59.977020 129.930328,62.479778 
	C127.010452,64.689667 122.561211,64.878807 118.062576,65.832855 
	C115.225769,64.471756 113.113640,63.238014 111.001511,62.004272 
	C119.143204,62.975502 125.639633,58.274666 132.758270,55.709946 
	C134.551987,55.063698 136.395142,54.554634 138.619400,53.970806 
	C139.367111,54.343422 139.711014,54.727760 140.110367,55.369751 
z"/>
<path fill="#7AE047" opacity="1.000000" stroke="none" 
	d="
M148.003433,163.979828 
	C147.499924,163.373657 146.996429,162.767487 146.797958,162.528564 
	C149.484207,161.231750 151.996246,159.966446 154.551514,158.795532 
	C161.674240,155.531647 168.788101,152.244904 175.978638,149.136520 
	C177.003220,148.693604 178.433975,149.190277 179.871048,149.066071 
	C180.432770,149.582581 180.800201,150.285095 181.007935,151.449066 
	C179.928543,151.933884 178.918259,151.715775 178.104340,152.021103 
	C173.864258,153.611801 169.589981,155.158432 165.506348,157.096924 
	C163.773941,157.919296 162.477982,159.661072 160.574051,160.987885 
	C157.772781,161.774567 155.410049,162.669266 152.979279,163.303070 
	C151.371170,163.722366 149.665451,163.767288 148.003433,163.979828 
z"/>
<path fill="#52DF50" opacity="1.000000" stroke="none" 
	d="
M180.136002,165.756897 
	C172.588852,163.638718 162.121719,167.004730 157.352585,173.464066 
	C157.052094,173.871033 157.662827,174.950790 157.872665,176.019424 
	C156.479996,175.611771 155.064285,174.902252 153.250244,173.758484 
	C152.380478,173.074799 151.909073,172.825363 151.437668,172.575928 
	C151.437668,172.575928 151.301468,172.600281 151.485443,172.225220 
	C152.107254,171.225021 152.545090,170.599884 153.349625,169.964371 
	C157.992767,167.602081 162.385101,165.435257 166.515411,162.849838 
	C171.320709,159.841934 176.113632,160.195236 180.143784,164.322388 
	C180.169281,164.707642 180.194763,165.092911 180.136002,165.756897 
z"/>
<path fill="#F93104" opacity="1.000000" stroke="none" 
	d="
M123.003967,70.001389 
	C128.474564,68.288239 134.014694,66.758553 139.365723,64.730003 
	C140.666611,64.236847 141.345276,62.102360 142.471329,60.418900 
	C143.685623,62.500469 144.738632,64.885712 145.458832,67.704567 
	C138.750351,70.424698 132.374710,72.711220 125.735794,74.851692 
	C124.646820,74.137161 123.821121,73.568680 122.996483,72.625320 
	C122.999687,71.500771 123.001831,70.751083 123.003967,70.001389 
z"/>
<path fill="#697FFD" opacity="1.000000" stroke="none" 
	d="
M83.638664,177.526215 
	C83.048920,177.515991 82.459175,177.505768 81.325699,177.334412 
	C80.192558,177.059738 79.603142,176.946167 79.086288,176.469604 
	C79.992294,172.794067 80.181252,169.119080 81.796921,166.246521 
	C84.906761,160.717361 88.699066,155.549377 92.496010,150.445618 
	C93.421707,149.201324 95.461830,148.786102 96.991867,148.365845 
	C96.996315,149.494247 96.998466,150.246521 97.000610,150.998779 
	C97.000610,150.998779 97.000000,151.000000 96.654053,151.065994 
	C89.947517,158.635208 84.217560,166.440720 83.857529,177.022247 
	C83.746185,177.170807 83.638664,177.526215 83.638664,177.526215 
z"/>
<path fill="#FB4EC8" opacity="1.000000" stroke="none" 
	d="
M73.983940,96.972054 
	C73.290039,96.984566 72.596146,96.997078 71.555313,97.010376 
	C72.246468,94.403046 73.284561,91.794922 74.710480,89.310112 
	C82.064919,93.623283 89.031540,97.813148 96.064133,102.336334 
	C97.420990,104.442383 98.711868,106.215118 99.633820,107.975113 
	C97.640251,107.249947 95.905785,106.715508 94.410805,105.792969 
	C89.157288,102.551048 84.077675,99.012970 78.705292,95.990341 
	C77.649750,95.396454 75.583862,96.598358 73.983940,96.972054 
z"/>
<path fill="#FC4DB8" opacity="1.000000" stroke="none" 
	d="
M95.998161,102.003014 
	C89.031540,97.813148 82.064919,93.623283 74.983589,89.090286 
	C75.055481,87.953682 75.242081,87.160210 75.664978,86.167114 
	C84.589523,90.844666 94.315735,94.140999 100.555840,102.602875 
	C98.855804,102.582405 97.426987,102.292709 95.998161,102.003014 
z"/>
<path fill="#FA7507" opacity="1.000000" stroke="none" 
	d="
M153.904510,86.672676 
	C147.681473,90.126427 141.430786,93.227028 134.659760,96.660278 
	C132.431595,97.000984 130.723770,97.009033 129.013367,96.680733 
	C129.009735,95.895905 129.008667,95.447418 129.291779,94.834503 
	C131.384415,93.112755 133.192886,91.555443 135.374603,89.932236 
	C138.813232,88.833183 142.136871,88.240021 144.867905,86.637138 
	C147.358902,85.175117 151.511139,84.672142 150.886810,80.104546 
	C150.907074,80.086006 150.947647,80.048981 150.947647,80.048981 
	C151.924042,82.139160 152.900452,84.229347 153.904510,86.672676 
z"/>
<path fill="#5EE04B" opacity="1.000000" stroke="none" 
	d="
M180.455017,164.060440 
	C176.113632,160.195236 171.320709,159.841934 166.515411,162.849838 
	C162.385101,165.435257 157.992767,167.602081 153.372345,169.600769 
	C154.422913,167.797073 155.750641,166.273788 157.230530,164.916412 
	C158.744293,163.527985 160.407227,162.302216 162.379028,160.986328 
	C164.229279,160.296707 165.650742,159.437637 167.191727,158.990814 
	C171.713654,157.679626 176.286697,155.028076 180.825165,158.987930 
	C180.805542,160.591446 180.785904,162.194977 180.455017,164.060440 
z"/>
<path fill="#F5151F" opacity="1.000000" stroke="none" 
	d="
M88.970474,55.862053 
	C89.771553,54.635761 90.572632,53.409470 91.731522,52.392723 
	C96.390305,55.738590 100.691277,58.874908 105.022247,62.372185 
	C107.032898,64.815231 109.013542,66.897316 110.988953,69.232346 
	C110.981758,69.653923 110.979782,69.822571 110.606430,69.923592 
	C108.490761,69.563850 106.746460,69.271744 104.937752,68.642075 
	C101.580032,65.872482 98.286713,63.440464 94.630760,60.943745 
	C91.662201,60.093742 88.733597,59.649181 88.970474,55.862053 
z"/>
<path fill="#FA5704" opacity="1.000000" stroke="none" 
	d="
M148.046173,73.924622 
	C148.710159,75.009583 149.374161,76.094536 150.037933,77.865967 
	C150.027588,79.030060 150.017456,79.507668 149.722427,79.907326 
	C143.627258,81.884010 137.816986,83.938652 132.004578,85.594269 
	C132.001205,84.130577 131.999985,83.065895 132.278107,81.777061 
	C137.720352,79.010139 142.883270,76.467384 148.046173,73.924622 
z"/>
<path fill="#FA3F04" opacity="1.000000" stroke="none" 
	d="
M125.999062,74.997742 
	C132.374710,72.711220 138.750351,70.424698 145.486176,68.059563 
	C146.448196,69.121674 147.050034,70.262398 147.437927,71.835617 
	C144.881210,72.967522 142.554382,73.727104 140.192276,74.353638 
	C135.475418,75.604752 130.739212,76.782898 126.007271,77.617218 
	C126.002060,76.494759 126.000565,75.746254 125.999062,74.997742 
z"/>
<path fill="#F72640" opacity="1.000000" stroke="none" 
	d="
M83.897522,66.936279 
	C84.854568,64.495605 85.811615,62.054932 87.137054,59.587002 
	C87.794769,61.092655 87.566116,63.449692 88.464127,64.014091 
	C92.117203,66.310028 96.115669,68.056412 99.990074,70.379700 
	C99.995750,71.503021 99.998169,72.252014 99.623024,73.001328 
	C98.489639,73.006149 97.733826,73.010658 96.544983,73.012665 
	C91.945709,73.382675 88.185799,73.047089 86.382530,68.325600 
	C86.122726,67.645355 84.753395,67.388870 83.897522,66.936279 
z"/>
<path fill="#C663F9" opacity="1.000000" stroke="none" 
	d="
M72.997864,136.997955 
	C75.600494,135.669449 78.214218,134.362106 80.802185,133.005630 
	C82.835083,131.940094 84.836128,130.813797 86.927261,129.359619 
	C90.647850,129.000610 94.292496,128.996490 98.386978,128.998077 
	C98.685226,129.542740 98.533653,130.081711 98.174927,130.820160 
	C91.591011,133.015594 85.214264,135.011566 78.006149,137.005432 
	C75.782463,137.001526 74.390167,136.999741 72.997864,136.997955 
z"/>
<path fill="#ECDE25" opacity="1.000000" stroke="none" 
	d="
M170.985062,127.402359 
	C166.300522,130.822586 161.512421,134.091736 156.557999,137.085648 
	C154.472900,138.345657 152.036484,139.024292 149.379608,139.609802 
	C148.998810,138.502823 148.998184,137.753250 148.997559,137.003662 
	C151.320694,135.728195 153.567093,134.277603 155.984833,133.218033 
	C159.667053,131.604309 163.529694,130.394836 167.174408,128.708298 
	C168.070816,128.293488 168.420914,126.698044 169.047379,125.237213 
	C169.653168,125.599388 170.233734,126.369728 170.985062,127.402359 
z"/>
<path fill="#F40A0C" opacity="1.000000" stroke="none" 
	d="
M108.820892,55.715122 
	C108.667892,57.416325 108.336243,58.834190 107.628159,60.624252 
	C106.503090,60.994984 105.754448,60.993526 104.987503,60.628593 
	C101.612450,56.490559 98.255684,52.716003 94.898926,48.941444 
	C96.700623,47.619495 98.502319,46.297543 100.656113,45.003002 
	C101.528496,49.983326 104.882782,52.856239 108.820892,55.715122 
z"/>
<path fill="#F9325B" opacity="1.000000" stroke="none" 
	d="
M83.645844,67.166580 
	C84.753395,67.388870 86.122726,67.645355 86.382530,68.325600 
	C88.185799,73.047089 91.945709,73.382675 96.568771,73.352371 
	C98.012398,75.130089 98.999222,76.565598 99.610550,78.001114 
	C98.482994,78.006462 97.730919,78.011826 96.595161,78.011780 
	C94.474281,77.676529 92.737091,77.346680 90.643036,76.951691 
	C87.417610,75.214867 84.549049,73.543175 81.680481,71.871483 
	C82.251709,70.379951 82.822937,68.888412 83.645844,67.166580 
z"/>
<path fill="#FB4807" opacity="1.000000" stroke="none" 
	d="
M126.010986,77.991173 
	C130.739212,76.782898 135.475418,75.604752 140.192276,74.353638 
	C142.554382,73.727104 144.881210,72.967522 147.481750,72.154755 
	C147.836349,72.454216 147.933167,72.867043 148.038086,73.602249 
	C142.883270,76.467384 137.720352,79.010139 131.897079,81.758385 
	C129.494141,81.644318 127.751564,81.324768 126.006439,80.629303 
	C126.000366,79.501686 125.996849,78.749969 125.997032,77.998749 
	C126.000732,77.999229 126.010986,77.991173 126.010986,77.991173 
z"/>
<path fill="#F90E13" opacity="1.000000" stroke="none" 
	d="
M94.596245,49.014633 
	C98.255684,52.716003 101.612450,56.490559 104.984680,60.883438 
	C104.997513,61.671581 104.994873,61.841404 104.992241,62.011227 
	C100.691277,58.874908 96.390305,55.738590 92.021324,52.247089 
	C92.733391,50.957211 93.513481,50.022514 94.596245,49.014633 
z"/>
<path fill="#FD3B74" opacity="1.000000" stroke="none" 
	d="
M81.438217,72.056183 
	C84.549049,73.543175 87.417610,75.214867 90.702499,77.296585 
	C93.077972,80.462868 95.037117,83.219116 96.996262,85.975372 
	C91.670563,82.395653 84.238708,82.020859 80.851547,75.022003 
	C80.927917,73.840599 81.061935,73.040749 81.438217,72.056183 
z"/>
<path fill="#F81E30" opacity="1.000000" stroke="none" 
	d="
M99.986816,70.005386 
	C96.115669,68.056412 92.117203,66.310028 88.464127,64.014091 
	C87.566116,63.449692 87.794769,61.092655 87.350685,59.302364 
	C87.645508,58.135445 88.095116,57.225914 88.757599,56.089218 
	C88.733597,59.649181 91.662201,60.093742 94.718376,61.266052 
	C97.447533,64.431511 99.726433,67.209961 101.668945,69.992203 
	C100.883972,69.999138 100.435394,70.002258 99.986816,70.005386 
z"/>
<path fill="#FD7A1C" opacity="1.000000" stroke="none" 
	d="
M129.007599,94.998940 
	C129.008667,95.447418 129.009735,95.895905 128.992767,97.039467 
	C127.646744,100.141014 126.318718,102.547478 124.729767,105.168625 
	C123.550079,105.983032 122.631317,106.582748 121.712547,107.182472 
	C120.827003,105.544159 119.941460,103.905853 119.045151,101.642746 
	C119.040543,100.658478 119.046715,100.299026 119.366753,99.868774 
	C121.455208,98.196938 123.229797,96.595909 125.404572,94.996330 
	C126.872368,94.998169 127.939987,94.998550 129.007599,94.998940 
z"/>
<path fill="#6EE14C" opacity="1.000000" stroke="none" 
	d="
M181.009918,158.637558 
	C176.286697,155.028076 171.713654,157.679626 167.191727,158.990814 
	C165.650742,159.437637 164.229279,160.296707 162.123688,160.981827 
	C161.323990,160.992493 161.153824,160.988739 160.983673,160.985016 
	C162.477982,159.661072 163.773941,157.919296 165.506348,157.096924 
	C169.589981,155.158432 173.864258,153.611801 178.104340,152.021103 
	C178.918259,151.715775 179.928543,151.933884 181.031647,151.753387 
	C181.208267,153.826569 181.201477,156.056870 181.009918,158.637558 
z"/>
<path fill="#F95277" opacity="1.000000" stroke="none" 
	d="
M111.264343,99.927498 
	C109.228424,99.181252 106.895279,98.754189 105.704895,97.354935 
	C102.890800,94.047066 100.620064,90.276939 98.409073,86.413162 
	C100.790970,87.094193 102.893433,88.055786 105.060196,89.353653 
	C107.435997,92.452217 109.747490,95.214523 112.057327,98.226883 
	C112.054054,98.643623 112.052429,98.810318 112.050797,98.977020 
	C111.862701,99.252945 111.674606,99.528870 111.264343,99.927498 
z"/>
<path fill="#68DE4C" opacity="1.000000" stroke="none" 
	d="
M160.574036,160.987869 
	C161.153824,160.988739 161.323990,160.992493 161.749512,161.000732 
	C160.407227,162.302216 158.744293,163.527985 157.230530,164.916412 
	C155.750641,166.273788 154.422913,167.797073 153.005661,169.611130 
	C152.545090,170.599884 152.107254,171.225021 151.445557,172.168701 
	C150.068237,171.003235 148.914780,169.519226 147.843842,167.280701 
	C147.944641,165.690018 147.962952,164.853821 147.981277,164.017639 
	C147.981277,164.017639 147.993774,164.001068 147.998596,163.990448 
	C149.665451,163.767288 151.371170,163.722366 152.979279,163.303070 
	C155.410049,162.669266 157.772781,161.774567 160.574036,160.987869 
z"/>
<path fill="#FA54BE" opacity="1.000000" stroke="none" 
	d="
M96.064133,102.336334 
	C97.426987,102.292709 98.855804,102.582405 100.646027,102.929359 
	C101.007423,102.986618 101.001343,102.998711 101.199265,103.292435 
	C102.929718,104.054741 104.462265,104.523308 105.994804,104.991867 
	C106.460487,105.007431 106.926170,105.022995 107.740128,105.056763 
	C107.381424,107.545967 106.674446,110.016960 105.554611,112.750046 
	C105.141747,113.012138 104.845650,112.914520 104.883698,112.547737 
	C103.282082,110.783249 101.642418,109.385551 100.002747,107.987854 
	C98.711868,106.215118 97.420990,104.442383 96.064133,102.336334 
z"/>
<path fill="#EADA22" opacity="1.000000" stroke="none" 
	d="
M148.562515,137.002808 
	C148.998184,137.753250 148.998810,138.502823 148.999390,139.627350 
	C144.881149,140.440048 140.762955,140.877838 136.279053,141.176300 
	C135.528229,140.287613 135.143127,139.538254 134.725372,138.465729 
	C136.203537,138.330582 137.750305,138.819122 139.217651,138.643631 
	C142.210236,138.285751 145.160049,137.570175 148.562515,137.002808 
z"/>
<path fill="#5E81FC" opacity="1.000000" stroke="none" 
	d="
M97.341385,150.931717 
	C96.998466,150.246521 96.996315,149.494247 97.018417,148.006104 
	C97.696457,145.514252 98.350243,143.758316 99.004028,142.002365 
	C99.265732,141.475922 99.527435,140.949463 99.899567,140.149612 
	C101.430077,139.646790 102.850166,139.417374 104.644783,139.270203 
	C103.861198,141.763611 102.875687,144.280426 101.486496,146.550171 
	C100.500572,148.161041 98.969757,149.438431 97.341385,150.931717 
z"/>
<path fill="#F35B46" opacity="1.000000" stroke="none" 
	d="
M112.444595,98.903824 
	C112.052429,98.810318 112.054054,98.643623 112.286209,97.942261 
	C112.661499,95.930222 112.806236,94.452873 112.958649,92.645500 
	C112.978737,91.875519 112.991150,91.435555 113.337601,91.057808 
	C115.105087,91.752892 116.538544,92.385757 117.961548,93.367027 
	C118.318352,95.790138 118.685616,97.864853 119.052879,99.939568 
	C119.046715,100.299026 119.040543,100.658478 119.021866,101.282150 
	C116.952362,100.641113 114.895378,99.735870 112.444595,98.903824 
z"/>
<path fill="#F257E4" opacity="1.000000" stroke="none" 
	d="
M104.845650,112.914520 
	C104.845650,112.914520 105.141747,113.012138 105.293938,113.041336 
	C104.096107,116.490562 102.746086,119.910576 101.179688,123.594116 
	C100.974182,123.143608 100.985046,122.429573 101.119324,121.062920 
	C100.160393,119.607018 99.078049,118.803741 97.995705,118.000465 
	C97.998848,117.250328 98.001991,116.500183 98.006210,115.374969 
	C98.470573,114.378906 98.933853,113.757904 99.945366,113.068283 
	C100.493591,112.999664 100.991028,113.006104 101.037262,113.306396 
	C101.466797,114.381836 101.850082,115.156982 102.781036,117.039711 
	C102.897011,114.852989 102.945908,113.930916 103.304489,113.001282 
	C104.024658,112.967316 104.435158,112.940918 104.845650,112.914520 
z"/>
<path fill="#384276" opacity="1.000000" stroke="none" 
	d="
M84.112419,177.675797 
	C83.638664,177.526215 83.746185,177.170807 84.273331,177.084015 
	C86.198883,176.959839 87.597290,176.922485 88.995689,176.885101 
	C90.065956,176.923386 91.136223,176.961655 93.002777,176.996490 
	C94.869209,176.954910 95.939362,176.916763 97.009506,176.878601 
	C99.375526,176.920074 101.741554,176.961563 104.544281,176.929367 
	C106.688187,176.902390 108.395378,176.949081 110.516037,177.070740 
	C102.148392,177.372269 93.367287,177.598816 84.112419,177.675797 
z"/>
<path fill="#384276" opacity="1.000000" stroke="none" 
	d="
M79.013725,176.832611 
	C79.603142,176.946167 80.192558,177.059738 81.030838,177.342346 
	C75.415947,177.509430 69.552185,177.507446 63.321266,177.313385 
	C63.407310,177.046005 63.860512,176.970703 65.053604,176.924500 
	C66.864845,176.915726 67.936195,176.877823 69.007553,176.839905 
	C70.722313,176.877899 72.437073,176.915894 74.975632,176.955261 
	C76.870857,176.915283 77.942291,176.873947 79.013725,176.832611 
z"/>
<path fill="#A66DFB" opacity="1.000000" stroke="none" 
	d="
M93.379471,136.996185 
	C94.051826,136.008469 95.110504,135.023560 96.516075,134.024048 
	C96.904312,134.758820 96.945648,135.508194 96.921082,136.627930 
	C95.825378,136.998505 94.795593,136.998749 93.379471,136.996185 
z"/>
<path fill="#FE9103" opacity="1.000000" stroke="none" 
	d="
M121.800827,107.461243 
	C122.631317,106.582748 123.550079,105.983032 124.806610,105.471931 
	C125.760582,106.039230 126.376785,106.517914 126.992981,106.996597 
	C126.800591,107.530624 126.608192,108.064651 125.958603,108.799881 
	C125.334030,109.000977 125.166641,109.000885 124.999252,109.000786 
	C124.999252,109.000786 125.000000,109.000000 124.893845,108.886208 
	C124.475655,108.620689 124.212227,108.694229 123.997414,108.993042 
	C123.997414,108.993042 123.540558,109.008003 123.312340,109.019608 
	C122.685783,108.600807 122.287445,108.170410 121.800827,107.461243 
z"/>
<path fill="#C065F9" opacity="1.000000" stroke="none" 
	d="
M55.623138,133.936249 
	C55.577568,134.748154 55.287296,135.744980 54.703857,136.885498 
	C54.733276,136.059845 55.055855,135.090515 55.623138,133.936249 
z"/>
<path fill="#7AE047" opacity="1.000000" stroke="none" 
	d="
M147.753265,164.270050 
	C147.962952,164.853821 147.944641,165.690018 147.885529,166.941895 
	C147.519470,167.289948 147.247498,167.131073 146.939819,166.657944 
	C147.075623,165.797455 147.300430,165.159943 147.753265,164.270050 
z"/>
<path fill="#FA7507" opacity="1.000000" stroke="none" 
	d="
M150.007324,79.985275 
	C150.017456,79.507668 150.027588,79.030060 150.052094,78.194077 
	C150.370346,78.364090 150.674225,78.892479 150.962875,79.734924 
	C150.947647,80.048981 150.907074,80.086006 150.673050,80.065338 
	C150.439026,80.044678 150.007324,79.985275 150.007324,79.985275 
z"/>
<path fill="#B468F7" opacity="1.000000" stroke="none" 
	d="
M52.956673,140.956558 
	C53.041271,140.353180 53.172009,139.781967 53.538567,139.033112 
	C53.774387,138.855484 53.976860,138.940323 53.986427,139.276169 
	C53.697132,140.090134 53.398266,140.568253 53.099400,141.046371 
	C53.099400,141.046371 53.002808,140.988724 52.956673,140.956558 
z"/>
<path fill="#68DE4C" opacity="1.000000" stroke="none" 
	d="
M151.548340,172.838577 
	C151.909073,172.825363 152.380478,173.074799 152.930603,173.607925 
	C152.559219,173.628159 152.109116,173.364700 151.548340,172.838577 
z"/>
<path fill="#1695F7" opacity="1.000000" stroke="none" 
	d="
M113.279396,176.766907 
	C113.244102,176.521530 113.499710,176.354279 114.024139,176.202805 
	C114.011070,176.364746 113.770187,176.573563 113.279396,176.766907 
z"/>
<path fill="#F952F2" opacity="1.000000" stroke="none" 
	d="
M65.319077,110.777794 
	C65.451111,110.912750 65.414764,111.244965 65.228477,111.782494 
	C65.102592,111.650223 65.126656,111.312637 65.319077,110.777794 
z"/>
<path fill="#EADA22" opacity="1.000000" stroke="none" 
	d="
M134.145599,137.257294 
	C134.407990,137.209183 134.596817,137.477982 134.753784,138.046112 
	C134.581146,138.035080 134.364517,137.777985 134.145599,137.257294 
z"/>
<path fill="#FDD114" opacity="1.000000" stroke="none" 
	d="
M135.947342,129.328979 
	C137.025772,128.056168 137.891327,126.688225 139.109512,126.199806 
	C146.110718,123.392731 153.195496,120.794098 160.617920,118.055817 
	C161.554245,119.317780 162.124603,120.648735 162.989655,122.667374 
	C153.432281,125.631371 146.383698,133.980392 135.133972,132.874008 
	C135.400314,131.745728 135.648819,130.692902 135.947342,129.328979 
z"/>
<path fill="#4289FD" opacity="1.000000" stroke="none" 
	d="
M97.009392,176.482300 
	C95.939362,176.916763 94.869209,176.954910 93.400803,176.935760 
	C91.341301,170.254822 95.464066,165.159027 97.813148,159.704010 
	C100.252693,154.038925 103.471207,148.709290 106.689178,143.124573 
	C110.514343,144.689346 109.274002,146.931946 108.048119,149.489700 
	C104.375275,157.152939 100.861801,164.893784 97.392273,172.651810 
	C96.944374,173.653320 97.121613,174.934418 97.009392,176.482300 
z"/>
<path fill="#8C74FC" opacity="1.000000" stroke="none" 
	d="
M69.009186,176.461487 
	C67.936195,176.877823 66.864845,176.915726 65.397202,176.882263 
	C65.008881,174.268784 63.944866,170.750549 65.213966,169.356827 
	C70.192810,163.889069 72.257080,155.645508 80.635468,153.013855 
	C80.435890,154.462433 80.069656,156.043121 79.279709,157.371918 
	C76.033173,162.833008 72.628769,168.200150 69.368073,173.653061 
	C68.979935,174.302155 69.117126,175.265411 69.009186,176.461487 
z"/>
<path fill="#A66DFB" opacity="1.000000" stroke="none" 
	d="
M72.297401,152.836304 
	C71.558586,153.004318 71.112541,153.001907 70.331947,152.997925 
	C73.424477,150.342331 76.851547,147.688324 80.643349,145.019775 
	C78.202110,147.558792 75.396133,150.112350 72.297401,152.836304 
z"/>
<path fill="#A66DFB" opacity="1.000000" stroke="none" 
	d="
M82.356606,144.977051 
	C82.297096,143.893494 82.594177,142.788818 82.946350,141.344818 
	C83.826248,140.434647 84.651062,139.863815 86.036713,139.071320 
	C87.065994,138.238297 87.534424,137.626907 88.002853,137.015503 
	C89.071838,137.011276 90.140816,137.007034 91.611053,137.007660 
	C88.912605,139.660339 85.812904,142.308136 82.356606,144.977051 
z"/>
<path fill="#8C74FC" opacity="1.000000" stroke="none" 
	d="
M91.640121,143.018845 
	C88.556465,146.288620 85.117035,149.580978 81.337494,152.935272 
	C84.426369,149.678635 87.855362,146.360046 91.640121,143.018845 
z"/>
<path fill="#C065F9" opacity="1.000000" stroke="none" 
	d="
M53.089596,141.417664 
	C53.398266,140.568253 53.697132,140.090134 54.077675,139.337189 
	C60.127808,138.374329 66.096268,137.686310 72.531296,136.998108 
	C74.390167,136.999741 75.782463,137.001526 77.592850,137.006195 
	C77.341690,138.093704 76.905090,139.817123 75.965446,140.159363 
	C69.868851,142.379898 63.728672,144.547958 57.464325,146.212051 
	C54.401566,147.025681 53.155243,144.658295 53.089596,141.417664 
z"/>
<path fill="#AA6CF8" opacity="1.000000" stroke="none" 
	d="
M87.703629,137.087067 
	C87.534424,137.626907 87.065994,138.238297 86.300003,138.924759 
	C86.469757,138.386093 86.937080,137.772354 87.703629,137.087067 
z"/>
<path fill="#F556F6" opacity="1.000000" stroke="none" 
	d="
M97.604980,117.979828 
	C99.078049,118.803741 100.160393,119.607018 101.122253,120.705536 
	C100.356979,120.558525 99.712189,120.116264 99.067398,119.674011 
	C96.820366,123.237442 93.489075,120.055016 90.410858,120.998505 
	C88.046135,119.230698 86.091637,117.463837 84.069916,115.350159 
	C88.406548,115.988632 92.810410,116.973907 97.604980,117.979828 
z"/>
<path fill="#F257E4" opacity="1.000000" stroke="none" 
	d="
M94.102341,113.326347 
	C94.939636,113.457008 95.870407,113.905159 96.894287,114.670395 
	C96.056870,114.539612 95.126335,114.091728 94.102341,113.326347 
z"/>
<path fill="#FA190A" opacity="1.000000" stroke="none" 
	d="
M105.022247,62.372185 
	C104.994873,61.841404 104.997513,61.671581 105.002975,61.246918 
	C105.754448,60.993526 106.503090,60.994984 107.626175,60.994492 
	C108.790955,61.297989 109.581291,61.603439 110.686569,61.956581 
	C113.113640,63.238014 115.225769,64.471756 117.669861,65.853195 
	C118.001022,66.749054 118.000214,67.497223 117.561546,68.620789 
	C115.080521,68.990585 113.037346,68.984993 110.994179,68.979408 
	C109.013542,66.897316 107.032898,64.815231 105.022247,62.372185 
z"/>
<path fill="#A66DFB" opacity="1.000000" stroke="none" 
	d="
M67.635735,153.018509 
	C64.303574,159.425537 58.450329,162.984253 51.632462,165.214066 
	C51.365318,165.301437 50.864712,164.674988 50.235725,164.188782 
	C50.237801,163.229034 50.244640,162.037430 50.752018,161.759476 
	C56.211807,158.768387 61.750511,155.921356 67.635735,153.018509 
z"/>
<path fill="#FE416B" opacity="1.000000" stroke="none" 
	d="
M104.995888,89.017387 
	C102.893433,88.055786 100.790970,87.094193 98.346832,86.072556 
	C97.836975,86.007484 97.668816,86.002464 97.248459,85.986404 
	C95.037117,83.219116 93.077972,80.462868 91.059364,77.361717 
	C92.737091,77.346680 94.474281,77.676529 96.621872,78.364151 
	C98.104683,80.068436 99.132957,81.453255 100.260254,82.752136 
	C101.802391,84.528999 103.419800,86.240547 105.002563,88.239410 
	C104.998749,88.671623 104.997314,88.844505 104.995888,89.017387 
z"/>
<path fill="#FE9103" opacity="1.000000" stroke="none" 
	d="
M136.000824,99.991486 
	C140.061142,98.992210 144.121460,97.992920 148.588333,96.993797 
	C148.293900,97.840164 147.763260,99.079315 146.864365,99.469017 
	C140.870514,102.067551 134.798019,104.484688 128.543335,106.688507 
	C130.890656,104.274681 133.445740,102.133087 136.000824,99.991486 
z"/>
<path fill="#FE880A" opacity="1.000000" stroke="none" 
	d="
M135.989517,99.662430 
	C133.445740,102.133087 130.890656,104.274681 128.167038,106.703865 
	C127.830940,106.992584 127.663383,106.993713 127.244400,106.995720 
	C126.376785,106.517914 125.760582,106.039230 125.067535,105.257248 
	C126.318718,102.547478 127.646744,100.141014 128.995361,97.375816 
	C130.723770,97.009033 132.431595,97.000984 134.566422,96.990173 
	C135.321686,97.769402 135.649948,98.551384 135.989517,99.662430 
z"/>
<path fill="#FE9103" opacity="1.000000" stroke="none" 
	d="
M150.348404,96.988739 
	C151.273438,96.457230 152.559372,95.928505 153.925964,95.688347 
	C152.907516,96.315117 151.808411,96.653328 150.348404,96.988739 
z"/>
<path fill="#FE880A" opacity="1.000000" stroke="none" 
	d="
M124.247955,108.995842 
	C124.212227,108.694229 124.475655,108.620689 124.893646,108.886703 
	C124.832558,109.000206 124.665520,108.999428 124.247955,108.995842 
z"/>
<path fill="#FE880A" opacity="1.000000" stroke="none" 
	d="
M125.106117,109.114456 
	C125.166641,109.000885 125.334030,109.000977 125.752541,109.000839 
	C126.003662,109.000610 125.646080,109.282906 125.646080,109.282906 
	C125.646080,109.282906 125.212982,109.228134 125.106117,109.114456 
z"/>
<path fill="#757BFC" opacity="1.000000" stroke="none" 
	d="
M79.086288,176.469604 
	C77.942291,176.873947 76.870857,176.915283 75.401230,176.898132 
	C75.818748,166.959366 79.999214,158.750549 87.307487,152.101852 
	C90.973221,148.766937 94.652878,145.447342 98.665131,142.061584 
	C98.350243,143.758316 97.696457,145.514252 97.016113,147.629944 
	C95.461830,148.786102 93.421707,149.201324 92.496010,150.445618 
	C88.699066,155.549377 84.906761,160.717361 81.796921,166.246521 
	C80.181252,169.119080 79.992294,172.794067 79.086288,176.469604 
z"/>
<path fill="#5E81FC" opacity="1.000000" stroke="none" 
	d="
M88.996338,176.444733 
	C87.597290,176.922485 86.198883,176.959839 84.384682,176.935440 
	C84.217560,166.440720 89.947517,158.635208 96.653442,151.066299 
	C95.276436,155.438385 94.145531,160.246857 91.662811,164.208054 
	C89.255180,168.049438 88.826897,171.837158 88.996338,176.444733 
z"/>
<path fill="#FE50D5" opacity="1.000000" stroke="none" 
	d="
M104.883698,112.547729 
	C104.435158,112.940918 104.024658,112.967316 102.970665,112.997810 
	C101.881783,113.003304 101.436409,113.004707 100.991028,113.006104 
	C100.991028,113.006104 100.493591,112.999664 100.244873,112.992424 
	C98.209419,111.681686 96.502251,110.248062 94.621574,109.098206 
	C88.005608,105.053146 81.330040,101.105583 74.330513,97.046539 
	C75.583862,96.598358 77.649750,95.396454 78.705292,95.990341 
	C84.077675,99.012970 89.157288,102.551048 94.410805,105.792969 
	C95.905785,106.715508 97.640251,107.249947 99.633820,107.975113 
	C101.642418,109.385551 103.282082,110.783249 104.883698,112.547729 
z"/>
<path fill="#FC4DB8" opacity="1.000000" stroke="none" 
	d="
M105.796997,104.699860 
	C104.462265,104.523308 102.929718,104.054741 101.204056,103.289673 
	C102.540344,103.464737 104.069763,103.936295 105.796997,104.699860 
z"/>
<path fill="#FC2810" opacity="1.000000" stroke="none" 
	d="
M110.988953,69.232346 
	C113.037346,68.984993 115.080521,68.990585 117.561249,68.994888 
	C119.426849,69.288025 120.854881,69.582458 122.643448,69.939140 
	C123.001831,70.751083 122.999687,71.500771 122.600433,72.629669 
	C120.136772,73.338539 118.070213,73.668190 115.710556,73.855850 
	C113.937569,72.472977 112.457687,71.232101 110.977798,69.991226 
	C110.979782,69.822571 110.981758,69.653923 110.988953,69.232346 
z"/>
<path fill="#FB3511" opacity="1.000000" stroke="none" 
	d="
M116.003662,73.997841 
	C118.070213,73.668190 120.136772,73.338539 122.599373,73.004539 
	C123.821121,73.568680 124.646820,74.137161 125.735794,74.851692 
	C126.000565,75.746254 126.002060,76.494759 126.007271,77.617218 
	C126.010986,77.991173 126.000732,77.999229 125.548386,77.999199 
	C122.402466,77.999756 119.708893,78.000343 116.874542,77.804794 
	C116.523079,77.361137 116.277664,77.154938 115.998917,76.616074 
	C116.001434,75.493988 116.002548,74.745918 116.003662,73.997841 
z"/>
<path fill="#FA6705" opacity="1.000000" stroke="none" 
	d="
M149.722427,79.907326 
	C150.007324,79.985275 150.439026,80.044678 150.652802,80.083878 
	C151.511139,84.672142 147.358902,85.175117 144.867905,86.637138 
	C142.136871,88.240021 138.813232,88.833183 135.222366,89.665176 
	C133.799759,88.643082 132.902634,87.822159 132.004913,86.749252 
	C132.005142,86.329269 132.005936,86.161278 132.006714,85.993294 
	C137.816986,83.938652 143.627258,81.884010 149.722427,79.907326 
z"/>
<path fill="#FE6811" opacity="1.000000" stroke="none" 
	d="
M132.005493,87.001236 
	C132.902634,87.822159 133.799759,88.643082 134.849121,89.731064 
	C133.192886,91.555443 131.384415,93.112755 129.291779,94.834503 
	C127.939987,94.998550 126.872368,94.998169 125.403496,94.568985 
	C125.005051,92.430679 125.007866,90.721169 125.389099,89.005463 
	C127.846832,88.333244 129.926163,87.667236 132.005493,87.001236 
z"/>
<path fill="#FC2A1F" opacity="1.000000" stroke="none" 
	d="
M115.710556,73.855850 
	C116.002548,74.745918 116.001434,75.493988 115.666473,76.470993 
	C113.223175,76.132477 111.113724,75.565041 108.817390,74.711838 
	C107.419800,72.954384 106.209091,71.482681 104.999466,69.753151 
	C105.001091,69.323425 105.001625,69.151535 105.002159,68.979645 
	C106.746460,69.271744 108.490761,69.563850 110.606430,69.923592 
	C112.457687,71.232101 113.937569,72.472977 115.710556,73.855850 
z"/>
<path fill="#FB1D24" opacity="1.000000" stroke="none" 
	d="
M104.937752,68.642075 
	C105.001625,69.151535 105.001091,69.323425 104.625305,69.750137 
	C103.501816,69.999443 102.753571,69.993927 102.005333,69.988403 
	C99.726433,67.209961 97.447533,64.431511 95.081017,61.330757 
	C98.286713,63.440464 101.580032,65.872482 104.937752,68.642075 
z"/>
<path fill="#FC550F" opacity="1.000000" stroke="none" 
	d="
M132.004913,86.749252 
	C129.926163,87.667236 127.846832,88.333244 125.133232,89.001709 
	C124.328468,89.002716 124.157982,89.001266 123.991287,88.599770 
	C123.994591,87.132843 123.994087,86.065964 124.131226,84.710922 
	C124.848907,83.283585 125.428947,82.144402 126.008987,81.005219 
	C127.751564,81.324768 129.494141,81.644318 131.617737,81.982544 
	C131.999985,83.065895 132.001205,84.130577 132.004578,85.594269 
	C132.005936,86.161278 132.005142,86.329269 132.004913,86.749252 
z"/>
<path fill="#FD3544" opacity="1.000000" stroke="none" 
	d="
M99.986046,78.001114 
	C98.999222,76.565598 98.012398,75.130089 97.001793,73.354874 
	C97.733826,73.010658 98.489639,73.006149 99.876495,73.236664 
	C103.332115,74.652267 106.156708,75.832848 108.989273,77.386124 
	C110.327713,80.148056 111.658173,82.537277 112.983261,85.271469 
	C112.959625,86.076004 112.941368,86.535568 112.578339,86.931656 
	C108.151054,83.912491 104.068550,80.956802 99.986046,78.001114 
z"/>
<path fill="#FC2B34" opacity="1.000000" stroke="none" 
	d="
M108.981300,77.013420 
	C106.156708,75.832848 103.332115,74.652267 100.254059,73.236351 
	C99.998169,72.252014 99.995750,71.503021 99.990074,70.379700 
	C100.435394,70.002258 100.883972,69.999138 101.668945,69.992203 
	C102.753571,69.993927 103.501816,69.999443 104.624222,70.007980 
	C106.209091,71.482681 107.419800,72.954384 108.814850,75.047760 
	C108.993225,76.117439 108.987259,76.565430 108.981300,77.013420 
z"/>
<path fill="#FD405A" opacity="1.000000" stroke="none" 
	d="
M99.610550,78.001114 
	C104.068550,80.956802 108.151054,83.912491 112.596237,87.331734 
	C112.973801,88.862053 112.988678,89.928825 113.003563,90.995590 
	C112.991150,91.435555 112.978737,91.875519 112.626190,92.583405 
	C109.859016,91.227585 107.431976,89.603836 105.004944,87.980087 
	C103.419800,86.240547 101.802391,84.528999 100.260254,82.752136 
	C99.132957,81.453255 98.104683,80.068436 97.005554,78.369553 
	C97.730919,78.011826 98.482994,78.006462 99.610550,78.001114 
z"/>
<path fill="#FC441B" opacity="1.000000" stroke="none" 
	d="
M126.006432,80.629303 
	C125.428947,82.144402 124.848907,83.283585 123.703415,84.711250 
	C121.424492,85.002975 119.711021,85.006218 117.995392,84.999268 
	C117.993217,84.989082 117.985390,84.969772 117.917114,84.589005 
	C117.571007,82.139130 117.293167,80.070030 117.015320,78.000931 
	C119.708893,78.000343 122.402466,77.999756 125.544685,77.998718 
	C125.996849,78.749969 126.000366,79.501686 126.006432,80.629303 
z"/>
<path fill="#FE6525" opacity="1.000000" stroke="none" 
	d="
M123.987488,88.999817 
	C124.157982,89.001266 124.328468,89.002716 124.754822,89.007919 
	C125.007866,90.721169 125.005051,92.430679 125.003311,94.567535 
	C123.229797,96.595909 121.455208,98.196938 119.366753,99.868774 
	C118.685616,97.864853 118.318352,95.790138 117.978271,93.111343 
	C118.012611,92.336739 118.019768,92.166214 118.381546,91.971405 
	C120.486603,90.964684 122.237045,89.982246 123.987488,88.999817 
z"/>
<path fill="#FD5265" opacity="1.000000" stroke="none" 
	d="
M105.002563,88.239410 
	C107.431976,89.603836 109.859016,91.227585 112.618515,92.913422 
	C112.806236,94.452873 112.661499,95.930222 112.287872,97.692200 
	C109.747490,95.214523 107.435997,92.452217 105.060196,89.353653 
	C104.997314,88.844505 104.998749,88.671623 105.002563,88.239410 
z"/>
<path fill="#FE5338" opacity="1.000000" stroke="none" 
	d="
M118.026924,91.995682 
	C118.019768,92.166214 118.012611,92.336739 117.988724,92.762939 
	C116.538544,92.385757 115.105087,91.752892 113.337601,91.057808 
	C112.988678,89.928825 112.973801,88.862053 112.941017,87.395203 
	C112.941368,86.535568 112.959625,86.076004 113.400482,85.289047 
	C115.210518,84.964363 116.597954,84.967064 117.985390,84.969772 
	C117.985390,84.969772 117.993217,84.989082 117.994629,85.435547 
	C118.006332,87.919907 118.016632,89.957794 118.026924,91.995682 
z"/>
<path fill="#FD4FE2" opacity="1.000000" stroke="none" 
	d="
M101.037262,113.306396 
	C101.436409,113.004707 101.881783,113.003304 102.660988,113.005379 
	C102.945908,113.930916 102.897011,114.852989 102.781036,117.039711 
	C101.850082,115.156982 101.466797,114.381836 101.037262,113.306396 
z"/>
<path fill="#FC3729" opacity="1.000000" stroke="none" 
	d="
M117.917114,84.589005 
	C116.597954,84.967064 115.210518,84.964363 113.405853,84.944077 
	C111.658173,82.537277 110.327713,80.148056 108.989273,77.386124 
	C108.987259,76.565430 108.993225,76.117439 109.001732,75.333527 
	C111.113724,75.565041 113.223175,76.132477 115.665070,76.844994 
	C116.277664,77.154938 116.523079,77.361137 116.874542,77.804794 
	C117.293167,80.070030 117.571007,82.139130 117.917114,84.589005 
z"/>
<path fill="#FE5425" opacity="1.000000" stroke="none" 
	d="
M118.381546,91.971405 
	C118.016632,89.957794 118.006332,87.919907 117.996796,85.445740 
	C119.711021,85.006218 121.424492,85.002975 123.565773,84.999405 
	C123.994087,86.065964 123.994591,87.132843 123.991287,88.599770 
	C122.237045,89.982246 120.486603,90.964684 118.381546,91.971405 
z"/>
</svg>