<?xml version="1.0" encoding="UTF-8"?>
<svg version="1.1" xmlns="http://www.w3.org/2000/svg" width="500" height="500">
<path d="M0 0 C165 0 330 0 500 0 C500 165 500 330 500 500 C335 500 170 500 0 500 C0 335 0 170 0 0 Z " fill="#FEFEFE" transform="translate(0,0)"/>
<path d="M0 0 C0.73041504 0.29213379 1.46083008 0.58426758 2.21337891 0.88525391 C20.33479117 8.3387805 36.7519796 19.62592881 51 33 C51.52529297 33.48823242 52.05058594 33.97646484 52.59179688 34.47949219 C80.40742068 60.55878843 100.99497655 99.65807577 103.11373901 138.06156921 C103.17949609 140.22106919 103.21617126 142.3786763 103.23828125 144.5390625 C103.24821106 145.33387024 103.25814087 146.12867798 103.26837158 146.9475708 C103.74457603 194.96933749 89.63035532 237.58544693 55.52734375 272.4765625 C39.13604485 288.94195129 20.2776991 300.83917494 -1 310 C-2.17369141 310.52787109 -2.17369141 310.52787109 -3.37109375 311.06640625 C-7.62921525 312.86141777 -10.62925666 313.71029087 -15 312 C-18.2255644 308.97083999 -21.84194745 305.45110739 -22.13803101 300.85939026 C-22.14452667 299.97323532 -22.15102234 299.08708038 -22.15771484 298.17407227 C-22.16797699 297.16864883 -22.17823914 296.1632254 -22.18881226 295.12733459 C-22.19611359 294.03472824 -22.20341492 292.94212189 -22.2109375 291.81640625 C-22.23902998 289.50324842 -22.26769457 287.19009748 -22.296875 284.87695312 C-22.3379621 281.23022835 -22.37484635 277.58362891 -22.40136719 273.93676758 C-22.4291841 270.41720863 -22.47508214 266.89823531 -22.5234375 263.37890625 C-22.5283168 261.76732384 -22.5283168 261.76732384 -22.53329468 260.1231842 C-22.68482691 250.66715843 -24.37068257 242.05460983 -29.1875 233.8125 C-29.71730469 232.89082031 -30.24710938 231.96914063 -30.79296875 231.01953125 C-31.19128906 230.35308594 -31.58960938 229.68664062 -32 229 C-30.99582031 228.90203125 -29.99164063 228.8040625 -28.95703125 228.703125 C-8.44623727 226.53798459 13.05448595 219.48062529 26.49609375 202.92578125 C38.3942957 186.85323538 42.17005503 170.5014895 42.25 150.875 C42.270625 149.63234375 42.29125 148.3896875 42.3125 147.109375 C42.36147396 135.38011213 40.59520805 124.81808335 35 114.4375 C34.48566406 113.43106445 34.48566406 113.43106445 33.9609375 112.40429688 C32.55861908 109.70403106 31.14415136 107.18408519 29.265625 104.78515625 C27.76433461 102.66759542 27.64982746 101.56441702 27.75 99 C27.76546875 98.34 27.7809375 97.68 27.796875 97 C28 95 28 95 28.5 93.20776367 C29.52742369 88.67114627 29.22769517 83.94354064 29.25 79.3125 C29.270625 78.26126953 29.29125 77.21003906 29.3125 76.12695312 C29.34933346 68.72803283 28.31830241 62.63660482 25 56 C9.35771871 54.41105495 -7.3266347 64.5510898 -20 73 C-22.05078125 73.046875 -22.05078125 73.046875 -24.3125 72.75 C-25.05113281 72.66234375 -25.78976562 72.5746875 -26.55078125 72.484375 C-29 72 -29 72 -31.7890625 71.0234375 C-51.71729461 64.67161656 -79.92125058 65.80191256 -99.60546875 72.51171875 C-105.89954576 73.79517654 -110.4471153 70.86876221 -115.625 67.75 C-126.71175847 61.2943382 -137.91882742 55.54101149 -151 56 C-153.9270633 61.47233574 -155.12465739 65.88325788 -155.1328125 72.0625 C-155.13418213 73.01801758 -155.13555176 73.97353516 -155.13696289 74.95800781 C-155.13301514 75.96186523 -155.12906738 76.96572266 -155.125 78 C-155.12814209 79.0322168 -155.13128418 80.06443359 -155.13452148 81.12792969 C-155.12461593 86.60785496 -154.84125272 91.83145164 -154.0625 97.25 C-153.48304623 103.30648252 -155.59515752 106.45363348 -159.0859375 111.265625 C-170.24214143 127.20305918 -170.95238235 148.46389376 -167.6875 167 C-163.89065942 186.714107 -156.06599317 203.00564517 -139.3125 214.9296875 C-124.99762323 223.87648548 -110.59935272 227.36317288 -94 229 C-94.83144531 230.62808594 -94.83144531 230.62808594 -95.6796875 232.2890625 C-96.41167367 233.73426596 -97.14343248 235.17958458 -97.875 236.625 C-98.23980469 237.33785156 -98.60460937 238.05070313 -98.98046875 238.78515625 C-100.60198854 241.99871366 -101.98139755 244.93638692 -102.99609375 248.40625 C-104 251 -104 251 -105.85546875 252.2421875 C-115.81903315 254.94586829 -127.0896966 255.95156915 -136.66015625 251.4609375 C-144.44210526 246.6020912 -151.18002033 239.54059374 -156.37890625 232 C-160.34763379 226.29022304 -165.22325797 221.55783728 -171.98828125 219.3515625 C-174.20847494 218.96356749 -176.30868039 218.83156785 -178.5625 218.8125 C-179.32691406 218.79832031 -180.09132812 218.78414062 -180.87890625 218.76953125 C-183.30153503 218.8676625 -183.30153503 218.8676625 -186 221 C-185.67928786 224.0809396 -185.42157944 225.59705881 -183.14453125 227.7734375 C-182.37496094 228.30195313 -181.60539062 228.83046875 -180.8125 229.375 C-173.21103013 234.63257541 -169.15731226 241.12965919 -165.1875 249.3125 C-159.09600909 261.28614434 -152.6371992 270.18290315 -139.33422852 274.54638672 C-136.02418769 275.18963072 -132.74798322 275.12236894 -129.390625 275.09765625 C-128.66381531 275.0962413 -127.93700562 275.09482635 -127.18817139 275.09336853 C-124.87540506 275.08778792 -122.56273688 275.07523904 -120.25 275.0625 C-118.67838682 275.05748249 -117.10677211 275.05292002 -115.53515625 275.04882812 C-111.69006657 275.03782485 -107.8450499 275.02057361 -104 275 C-103.88352959 279.54144994 -103.81265498 284.08251394 -103.75 288.625 C-103.71648437 289.91019531 -103.68296875 291.19539063 -103.6484375 292.51953125 C-103.52682155 304.25547065 -103.52682155 304.25547065 -108 309 C-108.7425 309.804375 -109.485 310.60875 -110.25 311.4375 C-113.99958431 313.56794563 -116.95254052 312.89480994 -121 312 C-123.90738124 311.04520912 -126.66042932 309.84384529 -129.4375 308.5625 C-130.21246826 308.20978027 -130.98743652 307.85706055 -131.78588867 307.49365234 C-149.49024292 299.24513468 -164.83620075 288.42188595 -179 275 C-179.89460938 274.15824219 -180.78921875 273.31648438 -181.7109375 272.44921875 C-212.70858411 242.45009577 -229.29439023 199.71663303 -230.28564453 157.00048828 C-230.71659816 112.86300125 -214.19940238 71.1880944 -183.47167969 39.52294922 C-182.07146911 38.07395891 -180.6951732 36.60197129 -179.3203125 35.12890625 C-134.09947345 -12.17182302 -59.57608835 -23.92861693 0 0 Z " fill="#010101" transform="translate(313,95)"/>
</svg>
