<?xml version="1.0" encoding="UTF-8"?>
<svg version="1.1" xmlns="http://www.w3.org/2000/svg" width="500" height="500">
<path d="M0 0 C165 0 330 0 500 0 C500 165 500 330 500 500 C335 500 170 500 0 500 C0 335 0 170 0 0 Z " fill="#FEFEFE" transform="translate(0,0)"/>
<path d="M0 0 C1.15564453 -0.020625 2.31128906 -0.04125 3.50195312 -0.0625 C11.37969925 -0.09788572 18.28713515 0.94063605 25.8125 3.25 C26.53671143 3.46914062 27.26092285 3.68828125 28.00708008 3.9140625 C44.01538629 9.04505836 57.05141732 17.33256615 68.8125 29.25 C69.92044922 30.35988281 69.92044922 30.35988281 71.05078125 31.4921875 C89.20144415 50.73541457 95.65748769 75.56469629 95.21484375 101.3359375 C94.1082414 125.33463761 81.1287163 147.95408928 64.0703125 164.26953125 C45.07630344 180.93036619 21.74506099 188.48821267 -3.21890831 188.58552551 C-5.31862256 188.5939791 -7.41793474 188.61462345 -9.51753235 188.63806152 C-14.72408378 188.69381 -19.93073309 188.7295868 -25.13745117 188.76568604 C-29.56143507 188.7971186 -33.98521705 188.83642592 -38.40903664 188.88594055 C-40.46117178 188.90576178 -42.51314338 188.91427323 -44.56535339 188.92224121 C-58.82648041 189.07383607 -71.69958024 192.11277861 -82.37890625 202.21484375 C-92.70115802 213.83016378 -95.79305232 226.06447302 -95.73339844 241.26831055 C-95.74221432 242.77150695 -95.75276664 244.274694 -95.76489639 245.77786732 C-95.79240266 249.77185243 -95.79641379 253.76552407 -95.79525757 257.75959015 C-95.79781579 261.51939761 -95.82196367 265.27895183 -95.84423828 269.03869629 C-95.89681288 280.00488223 -95.91510046 290.97121091 -95.9375 301.9375 C-96.02 326.460625 -96.1025 350.98375 -96.1875 376.25 C-159.2175 376.25 -222.2475 376.25 -287.1875 376.25 C-287.1875 309.59 -287.1875 242.93 -287.1875 174.25 C-285.2075 173.26 -285.2075 173.26 -283.1875 172.25 C-280.7678001 173.15282773 -278.69800458 174.1061928 -276.4375 175.3125 C-247.65628837 189.62905467 -212.11553594 191.86734418 -181.61108398 181.63525391 C-165.54727374 175.8364188 -151.24984583 168.25445957 -138.1875 157.25 C-137.29417969 156.50878906 -136.40085938 155.76757812 -135.48046875 155.00390625 C-113.7102178 136.24336741 -99.77284514 108.32379931 -95.6875 80.0625 C-93.00307684 61.7146174 -84.47829158 45.07419169 -72.1875 31.25 C-71.54683594 30.51523438 -70.90617188 29.78046875 -70.24609375 29.0234375 C-51.7990363 9.21122779 -26.57774674 0.11663301 0 0 Z " fill="#000000" transform="translate(346.1875,61.75)"/>
</svg>
