<?xml version="1.0" encoding="UTF-8"?>
<svg version="1.1" xmlns="http://www.w3.org/2000/svg" width="500" height="500">
<path d="M0 0 C165 0 330 0 500 0 C500 165 500 330 500 500 C335 500 170 500 0 500 C0 335 0 170 0 0 Z " fill="#FEFEFE" transform="translate(0,0)"/>
<path d="M0 0 C0.66 0 1.32 0 2 0 C2.35078613 0.63164063 2.70157227 1.26328125 3.06298828 1.9140625 C10.70985139 15.66702135 18.48090039 29.33369051 26.4375 42.91015625 C30.1321331 49.21570419 33.78852681 55.54294436 37.4375 61.875 C38.06003662 62.95515381 38.68257324 64.03530762 39.32397461 65.14819336 C40.58576826 67.33796334 41.84740534 69.52782355 43.10888672 71.71777344 C46.23680148 77.14659942 49.36858448 82.57319281 52.5 88 C53.75001879 90.16665583 55.00001878 92.3333225 56.25 94.5 C57.178125 96.10875 57.178125 96.10875 58.125 97.75 C63.75 107.5 63.75 107.5 65.62524414 110.75048828 C66.87435518 112.91557071 68.12354129 115.08060982 69.37280273 117.24560547 C72.51202309 122.68615706 75.64990563 128.12747216 78.78515625 133.5703125 C84.80747329 144.02206199 90.84669337 154.46299548 96.9375 164.875 C102.35921178 174.14499777 107.70204915 183.45831752 113.01922607 192.78845215 C118.22045129 201.9128284 123.48027878 211.00132774 128.78344727 220.06689453 C134.93766742 230.59084625 141.02369996 241.15380137 147.10888672 251.71777344 C150.23680149 257.14659944 153.36860767 262.57317941 156.5 268 C157.74089474 270.15103629 158.98178014 272.30207797 160.22265625 274.453125 C162.81301183 278.94316478 165.40426847 283.43268348 167.99609375 287.921875 C171.12959221 293.34960383 174.26107913 298.77848732 177.390625 304.20849609 C178.40296318 305.96442369 179.4158973 307.72000799 180.4296875 309.47509766 C181.60096113 311.50308696 182.76973124 313.53249124 183.9375 315.5625 C184.54464844 316.61566406 185.15179688 317.66882813 185.77734375 318.75390625 C187 321 187 321 187 322 C64.24 322 -58.52 322 -185 322 C-183.45460244 318.13650609 -181.88793449 314.87579302 -179.83203125 311.30078125 C-178.87478149 309.63088135 -178.87478149 309.63088135 -177.89819336 307.92724609 C-177.20304466 306.72228318 -176.5078113 305.5173691 -175.8125 304.3125 C-175.09031382 303.05565201 -174.3683941 301.79865088 -173.64672852 300.54150391 C-171.79256933 297.31362852 -169.93436047 294.08810651 -168.07458496 290.86346436 C-166.42607817 288.00474796 -164.77968312 285.14481546 -163.1328125 282.28515625 C-160.04520824 276.92721891 -156.95279067 271.57207499 -153.85888672 266.21777344 C-150.73675395 260.81329355 -147.61858796 255.40652588 -144.5 250 C-143.25001878 247.8333225 -142.00001879 245.66665583 -140.75 243.5 C-140.13125 242.4275 -139.5125 241.355 -138.875 240.25 C-132 228.33333333 -125.125 216.41666667 -118.25 204.5 C-117.63116943 203.42733887 -117.01233887 202.35467773 -116.37475586 201.24951172 C-115.12564482 199.08442929 -113.87645871 196.91939018 -112.62719727 194.75439453 C-109.48797691 189.31384294 -106.35009437 183.87252784 -103.21484375 178.4296875 C-97.19252671 167.97793801 -91.15330663 157.53700452 -85.0625 147.125 C-79.98724877 138.44737759 -74.97741233 129.73394432 -70 121 C-64.4599827 111.27884383 -58.86625191 101.59105342 -53.21655273 91.93310547 C-47.06233258 81.40915375 -40.97630004 70.84619863 -34.89111328 60.28222656 C-31.76319853 54.85340061 -28.63145157 49.42678636 -25.5 44 C-21.95879797 37.86288313 -18.4178489 31.72562239 -14.87988281 25.5866394 C-13.50193062 23.19573403 -12.12365828 20.80501328 -10.74536133 18.41430664 C-9.77459018 16.73016037 -8.80428126 15.04574769 -7.83398438 13.36132812 C-7.24423828 12.33845703 -6.65449219 11.31558594 -6.046875 10.26171875 C-5.52963867 9.36412842 -5.01240234 8.46653809 -4.47949219 7.54174805 C-3.99125977 6.70297119 -3.50302734 5.86419434 -3 5 C-2.4834082 4.06647705 -1.96681641 3.1329541 -1.43457031 2.17114258 C-0.96116211 1.45466553 -0.48775391 0.73818848 0 0 Z " fill="#000000" transform="translate(249,89)"/>
</svg>
