<?xml version="1.0" encoding="UTF-8"?>
<svg version="1.1" xmlns="http://www.w3.org/2000/svg" width="500" height="500">
<path d="M0 0 C0.89504226 -0.00155999 1.79008452 -0.00311998 2.71224928 -0.00472724 C5.71154393 -0.00871605 8.71078798 -0.00555578 11.71008301 -0.00241089 C13.86031626 -0.00376587 16.01054928 -0.00554635 18.16078186 -0.00772095 C24.00155009 -0.01228377 29.84230068 -0.01051043 35.68306923 -0.00734186 C41.79196852 -0.00481234 47.90086628 -0.00715746 54.00976562 -0.00872803 C64.26908642 -0.01054798 74.52840002 -0.00814795 84.78771973 -0.00338745 C96.65346017 0.00205483 108.51918343 0.00029205 120.38492346 -0.00521386 C130.56760985 -0.00974992 140.75029107 -0.01039311 150.93297815 -0.00777519 C157.01683999 -0.00621514 163.10069374 -0.00601123 169.18455505 -0.00931168 C174.90381107 -0.01219753 180.6230449 -0.01020149 186.34229851 -0.00441742 C188.44297689 -0.00309367 190.54365714 -0.00347743 192.64433479 -0.00568008 C195.50843927 -0.00840664 198.37247236 -0.00499191 201.23657227 0 C202.07071514 -0.00223072 202.90485801 -0.00446144 203.76427794 -0.00675976 C207.68433933 0.00652081 211.29032932 0.1584995 215.11828613 1.12698364 C215.11828613 1.78698364 215.11828613 2.44698364 215.11828613 3.12698364 C216.10828613 3.12698364 217.09828613 3.12698364 218.11828613 3.12698364 C219.68859863 4.99026489 219.68859863 4.99026489 221.24328613 7.43948364 C221.76148926 8.23999146 222.27969238 9.04049927 222.81359863 9.86526489 C225.44268764 14.42287727 225.26400036 18.65460811 225.25872803 23.76145935 C225.26169915 24.6540872 225.26467027 25.54671504 225.26773143 26.46639222 C225.27643108 29.46955774 225.27792774 32.47268346 225.27941895 35.4758606 C225.28404621 37.6241769 225.28907074 39.77249237 225.29446411 41.92080688 C225.3075986 47.7658867 225.31403507 53.61095503 225.31847477 59.4560473 C225.32140368 63.10598102 225.32550813 66.75591159 225.32997894 70.40584373 C225.34365637 81.82032898 225.35332194 93.23480704 225.35718083 104.64929992 C225.36166294 117.83560327 225.37921694 131.02180302 225.40818143 144.20807487 C225.42978086 154.39413425 225.43988418 164.58016445 225.44122195 174.7662465 C225.44227119 180.85300213 225.44820424 186.93966042 225.46604156 193.02639198 C225.48249223 198.75141373 225.48469232 204.47626465 225.47590256 210.20130157 C225.47513058 212.3031758 225.47949592 214.4050591 225.48936081 216.50691032 C225.50203455 219.37533046 225.49622828 222.24314137 225.48577881 225.11155701 C225.49786342 226.36044841 225.49786342 226.36044841 225.51019216 227.63456994 C225.4571668 233.85421108 223.98184071 237.89071815 219.93078613 242.75198364 C211.70562358 249.69767647 204.37766962 249.70661046 193.97595215 249.64456177 C192.44571773 249.64998909 190.91548855 249.65711516 189.38526917 249.665802 C185.24410643 249.68397986 181.10334406 249.67698722 176.96217465 249.66428566 C172.60859731 249.65411265 168.25505278 249.66356476 163.901474 249.66983032 C156.58216248 249.67710122 149.26301254 249.667541 141.94372559 249.64846802 C133.52204418 249.62677355 125.10075132 249.63369858 116.67907959 249.65577364 C109.41923124 249.6740315 102.15949872 249.67643346 94.89963478 249.66601896 C90.57706895 249.65983123 86.25468447 249.6588149 81.93213081 249.67216492 C77.85663893 249.68387234 73.7816376 249.67543181 69.70619774 249.65258789 C68.22494947 249.6473759 66.74365865 249.64868246 65.26242828 249.65763855 C40.35672299 249.79413107 18.46551696 241.1181148 0.11828613 224.12698364 C-14.85380111 208.68840703 -23.88696447 188.4735984 -24.05871582 166.84988403 C-24.06528702 166.15945511 -24.07185822 165.46902618 -24.07862854 164.75767517 C-24.0981715 162.49666196 -24.10997777 160.23571437 -24.11999512 157.97463989 C-24.12407064 157.19670012 -24.12814617 156.41876034 -24.1323452 155.61724663 C-24.15311941 151.50371449 -24.16746131 147.39021491 -24.17687988 143.27664185 C-24.18795988 139.04560906 -24.22240252 134.81509985 -24.26205158 130.58425236 C-24.28826783 127.31300419 -24.29657585 124.04188039 -24.30016136 120.77053642 C-24.30500998 119.21131265 -24.31657446 117.65209378 -24.33519936 116.09297371 C-24.52603444 99.06778758 -24.52603444 99.06778758 -18.46955872 92.62467957 C-13.82162913 88.44189166 -9.48150172 86.87947485 -3.3163147 86.86628723 C-2.20888916 86.85920242 -1.10146362 86.85211761 0.03952026 86.84481812 C1.24484406 86.84729553 2.45016785 86.84977295 3.6920166 86.85232544 C4.968974 86.84721451 6.2459314 86.84210358 7.56158447 86.83683777 C11.05754389 86.8234673 14.55339506 86.82286699 18.04937506 86.82540107 C20.97172096 86.82647227 23.89404511 86.82158352 26.81638634 86.81679565 C33.71342295 86.80570687 40.61040509 86.80525928 47.50744629 86.81130981 C54.61306637 86.8173477 61.71848834 86.80504198 68.82407463 86.78373975 C74.93295198 86.76610172 81.0417664 86.76012591 87.15066826 86.76337749 C90.79554706 86.76518724 94.44028458 86.76258522 98.08514023 86.74866295 C102.15214568 86.73370911 106.21875019 86.74307391 110.2857666 86.75466919 C112.0876796 86.74320358 112.0876796 86.74320358 113.92599487 86.73150635 C120.93706027 86.77568867 126.51418989 87.04193574 132.04406738 91.77542114 C132.50168457 92.34518677 132.95930176 92.91495239 133.43078613 93.50198364 C133.90129395 94.06659302 134.37180176 94.63120239 134.85656738 95.21292114 C137.85396343 99.76005447 138.41316909 103.65605021 138.43078613 109.06448364 C138.44754395 110.24913208 138.46430176 111.43378052 138.48156738 112.65432739 C137.88169028 118.38863651 135.16692949 123.07834028 131.11828613 127.12698364 C124.74702805 130.91370197 119.02822873 131.69494176 111.73327637 131.58108521 C110.23900871 131.58196136 110.23900871 131.58196136 108.71455383 131.58285522 C105.45163007 131.58008873 102.18964226 131.54906426 98.92687988 131.51760864 C96.65288288 131.51014116 94.37887941 131.50445063 92.10487366 131.50045776 C86.14205926 131.48524148 80.17963935 131.44599394 74.21697998 131.40164185 C68.12358943 131.36060276 62.03013466 131.34242831 55.93664551 131.32229614 C43.9970198 131.27949601 32.05768587 131.21129313 20.11828613 131.12698364 C20.16519844 132.01051514 20.16519844 132.01051514 20.21305847 132.91189575 C20.35541135 135.62926028 20.49273379 138.34685784 20.63000488 141.06448364 C20.67927124 141.99067505 20.7285376 142.91686646 20.77929688 143.87112427 C21.03343702 148.97631842 21.151245 154.03463647 20.99087524 159.14431763 C20.60028998 172.03184603 23.80835293 183.27823473 32.70812988 192.83401489 C43.25432667 202.63577426 55.69015585 204.41932056 69.52282715 204.4458313 C71.33896263 204.46089973 71.33896263 204.46089973 73.19178772 204.47627258 C76.4845464 204.5017209 79.77721217 204.51866293 83.07003903 204.53170061 C86.52138654 204.54741809 89.97264875 204.57418043 93.42393494 204.59973145 C99.94722407 204.64636766 106.47052953 204.68318469 112.99389929 204.71640432 C120.42570032 204.75473337 127.85741535 204.80411498 135.28914368 204.85438848 C150.56546218 204.95748264 165.84182907 205.04681563 181.11828613 205.12698364 C180.78828613 204.13698364 180.45828613 203.14698364 180.11828613 202.12698364 C180.03806066 200.00863991 180.020866 197.88773742 180.03599548 195.76792908 C180.03922461 195.12016453 180.04245374 194.47239998 180.04578072 193.80500621 C180.05786099 191.63077816 180.0772327 189.45667606 180.09655762 187.28250122 C180.10669986 185.72543105 180.11639359 184.16835791 180.12567139 182.61128235 C180.15215784 178.38014905 180.18493626 174.14908488 180.21882129 169.91800523 C180.25315889 165.49775493 180.28174197 161.07746756 180.31092834 156.65718079 C180.36708701 148.28491369 180.42844135 139.91269301 180.49164969 131.5404765 C180.56335224 122.00978117 180.62928196 112.47904867 180.69472015 102.94830859 C180.82947284 83.34115198 180.97149663 63.73405358 181.11828613 44.12698364 C180.15068328 44.12974902 179.18308043 44.1325144 178.18615627 44.13536358 C154.64190868 44.20196319 131.0976733 44.25126139 107.5533514 44.28242016 C96.16749155 44.29788882 84.78169393 44.3189784 73.39587402 44.353302 C63.4719603 44.38320429 53.54809165 44.40255865 43.62413412 44.40924913 C38.36950798 44.41315996 33.11501077 44.42235108 27.86042595 44.44417381 C22.91354023 44.46455199 17.96683643 44.47081471 13.01991272 44.46630669 C11.20549086 44.46713129 9.39106285 44.47308898 7.57667732 44.48460007 C5.09597542 44.4995651 2.61595696 44.4959228 0.13523865 44.48774719 C-0.93726036 44.50085498 -0.93726036 44.50085498 -2.03142601 44.51422757 C-9.04152085 44.4519453 -14.88194581 42.1267517 -19.88171387 37.12698364 C-24.91354882 30.63164114 -24.81007594 23.01346539 -23.88171387 15.12698364 C-22.93404704 12.12218639 -21.67110912 9.70734346 -19.88171387 7.12698364 C-19.36608887 6.30198364 -18.85046387 5.47698364 -18.31921387 4.62698364 C-17.84483887 4.13198364 -17.37046387 3.63698364 -16.88171387 3.12698364 C-15.89171387 3.12698364 -14.90171387 3.12698364 -13.88171387 3.12698364 C-13.88171387 2.46698364 -13.88171387 1.80698364 -13.88171387 1.12698364 C-9.23691752 -0.04816326 -4.75586903 -0.01271847 0 0 Z " fill="#F9F9F9" transform="translate(192.8817138671875,81.87301635742188)"/>
<path d="M0 0 C5.19447795 3.14783139 8.63907754 7.55458895 10.4375 13.375 C10.72693167 16.32745143 10.72026681 19.26498794 10.71165466 22.22979736 C10.71950968 23.56812736 10.71950968 23.56812736 10.72752339 24.93349433 C10.74252625 27.92348167 10.74322861 30.91329791 10.74389648 33.90332031 C10.75151781 36.04706613 10.75994526 38.19080921 10.76911926 40.33454895 C10.7910747 46.15905684 10.79986468 51.98351223 10.80494571 57.80805683 C10.80858826 61.4476439 10.81482783 65.08721719 10.8219471 68.72679901 C10.84644594 81.42610783 10.85949428 94.12537579 10.86303711 106.82470703 C10.86667194 118.65866484 10.89656264 130.49236321 10.93844169 142.32624173 C10.97314353 152.48861621 10.98858554 162.65090471 10.98928314 172.81333804 C10.99007603 178.88178341 10.9988206 184.94996459 11.02728081 191.01834869 C11.05345901 196.72790989 11.05566763 202.43698782 11.03962517 208.14658165 C11.03781047 210.23914074 11.04450323 212.3317276 11.06044388 214.42422676 C11.08092178 217.28747669 11.07034234 220.14903851 11.05223083 223.01226807 C11.0654308 223.83475957 11.07863077 224.65725108 11.09223074 225.50466657 C11.00335661 231.68212604 9.20173634 236.44295977 5.4375 241.375 C-1.71955553 247.10235681 -8.5174452 248.23483854 -17.5625 247.375 C-20.75926034 246.34970852 -23.64346355 245.02617213 -26.5625 243.375 C-26.5625 242.715 -26.5625 242.055 -26.5625 241.375 C-27.2225 241.375 -27.8825 241.375 -28.5625 241.375 C-32.98676568 235.34191044 -33.71127866 231.06067476 -33.70967102 223.75398254 C-33.71334771 222.86276583 -33.7170244 221.97154911 -33.7208125 221.05332583 C-33.73186134 218.05483189 -33.73569522 215.05637259 -33.73950195 212.05786133 C-33.7457657 209.91278981 -33.75241243 207.76771938 -33.75941467 205.62265015 C-33.7768327 199.78570371 -33.78737868 193.94876547 -33.7956202 188.11179948 C-33.80076877 184.46587052 -33.80684457 180.81994411 -33.81313133 177.17401695 C-33.83218584 165.7691404 -33.84641631 154.36427034 -33.8547433 142.95938092 C-33.864517 129.79004706 -33.89083904 116.62088122 -33.93124419 103.45160657 C-33.96139488 93.27570763 -33.9762112 83.09985688 -33.97952431 72.92391413 C-33.98187601 66.84488424 -33.99085227 60.76603379 -34.01598549 54.68705177 C-34.03925266 48.96691275 -34.04350472 43.2470715 -34.03322411 37.52689743 C-34.03272831 35.42908297 -34.03906165 33.33125393 -34.05278015 31.23348427 C-34.07048319 28.36561158 -34.06340046 25.49880936 -34.05024719 22.63093567 C-34.06121644 21.80416708 -34.07218568 20.9773985 -34.08348733 20.12557632 C-34.01442596 13.87253547 -32.47326562 8.52871999 -28.1505869 3.84523803 C-20.65836777 -2.76128047 -9.13908146 -4.18583884 0 0 Z " fill="#F8F8F8" transform="translate(115.5625,83.625)"/>
<path d="M0 0 C1.10309006 -0.00997513 2.20618011 -0.01995026 3.34269714 -0.03022766 C4.5433078 -0.03089233 5.74391846 -0.03155701 6.98091125 -0.03224182 C8.25304977 -0.04056534 9.52518829 -0.04888885 10.83587646 -0.0574646 C14.31962068 -0.07937021 17.80327713 -0.08820361 21.28708243 -0.09329104 C23.46733682 -0.09694048 25.64756843 -0.10318369 27.8278141 -0.11029243 C35.44493743 -0.13477706 43.06199279 -0.14783587 50.67915344 -0.15138245 C57.76096808 -0.15501294 64.84234807 -0.18487552 71.92403001 -0.22678703 C78.0176699 -0.26157668 84.11116641 -0.27693241 90.20490485 -0.27762848 C93.83826926 -0.27841861 97.47119101 -0.28703362 101.10445213 -0.31562614 C105.16383955 -0.34685801 109.22220401 -0.33770602 113.2816925 -0.32521057 C115.06742676 -0.34746201 115.06742676 -0.34746201 116.88923645 -0.37016296 C124.36503787 -0.30482842 130.27970659 0.85908768 136.45478821 5.27415466 C141.90533348 11.32198152 142.17373594 17.82517446 141.86494446 25.74290466 C141.06467566 32.63283791 138.89323221 36.38244456 133.51728821 40.71165466 C128.98308375 44.0199112 124.57008152 44.39591207 119.06143188 44.42132568 C117.45728172 44.43205864 117.45728172 44.43205864 115.82072449 44.44300842 C114.65751678 44.44569733 113.49430908 44.44838623 112.29585266 44.45115662 C111.06272842 44.45772781 109.82960419 44.46429901 108.55911255 44.47106934 C104.47876235 44.49077781 100.39845139 44.50246544 96.31806946 44.51243591 C94.90887623 44.51648635 93.49968319 44.52060336 92.09049034 44.524786 C85.46754865 44.54382225 78.844618 44.55805601 72.22165424 44.56639796 C64.59727491 44.57616197 56.97318655 44.60246593 49.34890968 44.64289886 C43.44211731 44.67313995 37.53540797 44.68787441 31.62853974 44.69117898 C28.10700836 44.69352052 24.58578836 44.7023629 21.06434059 44.72764015 C17.12969968 44.75542861 13.19543633 44.75106534 9.26069641 44.74412537 C8.10760986 44.75693542 6.95452332 44.76974548 5.76649475 44.78294373 C-2.12383101 44.73237858 -9.94324042 43.81994277 -15.79911804 38.05540466 C-16.23095398 37.30259216 -16.66278992 36.54977966 -17.10771179 35.77415466 C-17.56275085 35.02134216 -18.01778992 34.26852966 -18.48661804 33.49290466 C-21.59614308 26.97552378 -21.63275739 18.80750538 -19.48271179 11.96165466 C-17.28334859 6.88539932 -13.21979253 3.52084194 -8.27215862 1.21462917 C-5.33818251 0.20275402 -3.09587628 0.01506293 0 0 Z " fill="#F9F9F9" transform="translate(276.5452117919922,373.72584533691406)"/>
<path d="M0 0 C5.24915314 3.70528457 8.9508372 7.8525116 11 14 C11.67000408 21.41397958 11.64476115 27.91563452 7 34 C2.72874389 38.53441406 -1.50933979 41.58593548 -7.83203125 42.3359375 C-15.50332885 42.43647875 -21.0427899 41.72755058 -26.75 36.3515625 C-32.21787027 30.33164763 -33.46502185 25.0726856 -33.31640625 17.0078125 C-32.71539818 11.29452589 -30.27125721 7.63447356 -26.8125 3.1875 C-18.93154143 -2.94213444 -9.19685098 -3.57655316 0 0 Z " fill="#F1F1F1" transform="translate(202,376)"/>
<path d="M0 0 C5.68665211 3.34090811 9.58008813 8.19071444 11.625 14.4375 C12.53398264 22.44126921 11.39452171 28.11704614 7.0625 34.875 C6.588125 35.390625 6.11375 35.90625 5.625 36.4375 C4.965 36.4375 4.305 36.4375 3.625 36.4375 C3.625 37.0975 3.625 37.7575 3.625 38.4375 C-2.41447679 42.6315811 -8.18524222 43.03850142 -15.375 42.4375 C-22.30863505 40.32215371 -27.5075387 36.44953436 -31.3125 30.3125 C-33.55621231 24.04125442 -33.48666307 16.30625347 -30.875 10.1875 C-30.38 9.28 -29.885 8.3725 -29.375 7.4375 C-28.715 7.4375 -28.055 7.4375 -27.375 7.4375 C-27.16875 6.86 -26.9625 6.2825 -26.75 5.6875 C-21.51057636 -2.88610232 -8.50889756 -3.85122249 0 0 Z " fill="#F0F0F0" transform="translate(114.375,375.5625)"/>
<path d="M0 0 C-1.44077046 3.36179774 -3.24750021 5.59156268 -6 8 C-6.66 8 -7.32 8 -8 8 C-6.48291727 4.46014029 -4.24676932 0 0 0 Z " fill="#949494" transform="translate(180,377)"/>
<path d="M0 0 C0.66 0.33 1.32 0.66 2 1 C0.49776416 5.20626034 -2.28550034 6.73900021 -6 9 C-4.68775452 5.06326356 -3.08089673 2.77280706 0 0 Z " fill="#989898" transform="translate(264,377)"/>
</svg>
